<svg xmlns="http://www.w3.org/2000/svg" xmlns:xlink="http://www.w3.org/1999/xlink" width="531.805" height="420.572" viewBox="0 0 531.805 420.572"><defs><linearGradient id="a" y1="0.5" x2="1" y2="0.5" gradientUnits="objectBoundingBox"><stop offset="0" stop-color="#1a164a"/><stop offset="0.997" stop-color="#244c7a"/></linearGradient></defs><g transform="translate(-1122.482 -144.253)"><g transform="translate(1122.482 294.24)"><path d="M.7,2.076C.375,1.589-.021,1.244.05,1.051.152.756.558.553.842.32c.2.264.568.518.579.792C1.42,1.355,1.055,1.619.7,2.076Z" transform="translate(0.001 0.005)" fill="#24b8eb" fill-rule="evenodd"/><path d="M15.571,2.076c-.376-.467-.792-.781-.741-.974.081-.3.477-.528.741-.792.223.244.609.477.629.741S15.886,1.6,15.571,2.076Z" transform="translate(0.221 0.005)" fill="#24b8eb" fill-rule="evenodd"/><path d="M30.351,2.076c-.365-.467-.792-.781-.741-.974.081-.3.477-.528.731-.792.223.244.609.477.629.741C31.011,1.3,30.666,1.6,30.351,2.076Z" transform="translate(0.442 0.005)" fill="#24b8eb" fill-rule="evenodd"/><path d="M45.141,2.076c-.365-.467-.792-.781-.741-.974.081-.3.477-.528.741-.792.223.244.609.477.629.741S45.445,1.6,45.141,2.076Z" transform="translate(0.662 0.005)" fill="#24b8eb" fill-rule="evenodd"/><path d="M59.921,2.076c-.365-.467-.792-.781-.741-.974.071-.3.477-.528.731-.792.223.244.609.477.629.741S60.236,1.6,59.921,2.076Z" transform="translate(0.883 0.005)" fill="#24b8eb" fill-rule="evenodd"/><path d="M74.7,2.076c-.376-.467-.792-.781-.741-.974.081-.3.477-.528.731-.792.223.244.609.477.629.741C75.361,1.3,75.016,1.6,74.7,2.076Z" transform="translate(1.103 0.005)" fill="#24b8eb" fill-rule="evenodd"/><path d="M89.45,0c.335.477.69.751.67,1-.02.274-.4.518-.609.771-.274-.254-.67-.467-.761-.781C88.689.8,89.1.477,89.45,0Z" transform="translate(1.324)" fill="#24b8eb" fill-rule="evenodd"/><path d="M105.236,1.071c-.457.315-.751.68-.995.65-.274-.03-.507-.416-.751-.65.264-.254.5-.639.812-.71C104.485.309,104.789.725,105.236,1.071Z" transform="translate(1.544 0.005)" fill="#24b8eb" fill-rule="evenodd"/><path d="M9.146,8.4c-.436.345-.71.721-.954.71-.284-.02-.538-.386-.8-.6.254-.274.467-.67.771-.761C8.354,7.689,8.689,8.075,9.146,8.4Z" transform="translate(0.11 0.115)" fill="#24b8eb" fill-rule="evenodd"/><path d="M22.91,7.39c.335.467.69.751.68,1-.02.274-.386.518-.609.771-.274-.254-.67-.457-.761-.761C22.159,8.2,22.565,7.867,22.91,7.39Z" transform="translate(0.331 0.11)" fill="#24b8eb" fill-rule="evenodd"/><path d="M37.792,7.4c.284.487.619.8.579,1.045-.041.264-.436.477-.67.7-.254-.274-.629-.518-.7-.822C36.959,8.141,37.406,7.847,37.792,7.4Z" transform="translate(0.552 0.11)" fill="#24b8eb" fill-rule="evenodd"/><path d="M52.44,9.466c-.325-.487-.721-.832-.66-1.015.1-.3.507-.5.792-.741.2.264.568.518.578.792C53.16,8.745,52.795,9.009,52.44,9.466Z" transform="translate(0.772 0.115)" fill="#24b8eb" fill-rule="evenodd"/><path d="M67.362,9.456c-.386-.436-.832-.731-.792-.924.061-.3.447-.558.7-.822.244.233.629.436.67.7S67.646,8.968,67.362,9.456Z" transform="translate(0.993 0.115)" fill="#24b8eb" fill-rule="evenodd"/><path d="M82.04,9.466c-.345-.477-.751-.812-.69-1,.091-.3.5-.507.771-.761.213.254.589.507.6.771S82.385,9,82.04,9.466Z" transform="translate(1.213 0.115)" fill="#24b8eb" fill-rule="evenodd"/><path d="M97.846,8.44c-.457.325-.731.69-.984.67-.274-.02-.518-.406-.771-.629.264-.264.487-.65.792-.731C97.074,7.7,97.4,8.1,97.846,8.44Z" transform="translate(1.433 0.116)" fill="#24b8eb" fill-rule="evenodd"/><path d="M1.746,15.871c-.467.3-.761.66-1,.629-.274-.03-.5-.426-.741-.66.274-.254.507-.629.822-.7C1.015,15.1,1.319,15.516,1.746,15.871Z" transform="translate(0 0.226)" fill="#24b8eb" fill-rule="evenodd"/><path d="M16.526,15.911c-.477.294-.781.629-1.025.6-.274-.041-.487-.436-.721-.68.274-.244.528-.619.842-.68C15.825,15.109,16.11,15.536,16.526,15.911Z" transform="translate(0.22 0.226)" fill="#24b8eb" fill-rule="evenodd"/><path d="M30.31,14.78c.335.477.69.751.68,1-.02.274-.386.518-.609.771-.274-.254-.67-.467-.761-.771C29.549,15.592,29.955,15.257,30.31,14.78Z" transform="translate(0.442 0.22)" fill="#24b8eb" fill-rule="evenodd"/><path d="M46.1,15.861c-.457.315-.751.67-.995.65-.274-.03-.507-.416-.751-.65.264-.254.5-.639.812-.721C45.355,15.089,45.659,15.505,46.1,15.861Z" transform="translate(0.661 0.226)" fill="#24b8eb" fill-rule="evenodd"/><path d="M59.941,16.856c-.376-.447-.812-.751-.761-.954.071-.3.457-.538.71-.8.233.244.619.457.65.721S60.246,16.369,59.941,16.856Z" transform="translate(0.883 0.225)" fill="#24b8eb" fill-rule="evenodd"/><path d="M75.666,15.911c-.477.294-.781.629-1.025.6-.274-.041-.487-.436-.721-.68.274-.244.528-.619.842-.68C74.955,15.109,75.239,15.536,75.666,15.911Z" transform="translate(1.102 0.226)" fill="#24b8eb" fill-rule="evenodd"/><path d="M90.446,15.871c-.467.3-.761.66-1,.629-.274-.041-.5-.426-.741-.66.274-.254.507-.629.822-.7C89.715,15.1,90.019,15.516,90.446,15.871Z" transform="translate(1.323 0.226)" fill="#24b8eb" fill-rule="evenodd"/><path d="M105.205,15.739c-.4.365-.66.792-.863.761-.315-.051-.579-.406-.863-.629.254-.264.467-.65.761-.731C104.444,15.079,104.769,15.455,105.205,15.739Z" transform="translate(1.543 0.226)" fill="#24b8eb" fill-rule="evenodd"/><path d="M9.146,23.3c-.477.294-.781.629-1.025.589-.274-.041-.487-.436-.721-.68.274-.244.528-.619.842-.68C8.425,22.5,8.719,22.926,9.146,23.3Z" transform="translate(0.11 0.336)" fill="#24b8eb" fill-rule="evenodd"/><path d="M21.9,23.19c.457-.325.781-.71.984-.66.294.081.507.487.751.751-.254.213-.507.6-.771.6S22.347,23.525,21.9,23.19Z" transform="translate(0.327 0.336)" fill="#24b8eb" fill-rule="evenodd"/><path d="M37.751,24.246c-.376-.467-.792-.781-.741-.974.081-.3.477-.528.731-.792.223.244.609.477.639.741S38.055,23.769,37.751,24.246Z" transform="translate(0.552 0.335)" fill="#24b8eb" fill-rule="evenodd"/><path d="M52.531,24.246c-.376-.467-.792-.781-.741-.974.081-.3.477-.528.741-.792.223.244.609.477.629.741S52.846,23.769,52.531,24.246Z" transform="translate(0.772 0.335)" fill="#24b8eb" fill-rule="evenodd"/><path d="M67.311,24.246c-.376-.467-.792-.781-.741-.974.081-.3.477-.528.741-.792.223.244.609.477.629.741S67.626,23.769,67.311,24.246Z" transform="translate(0.993 0.335)" fill="#24b8eb" fill-rule="evenodd"/><path d="M82.091,24.246c-.376-.467-.792-.781-.741-.974.081-.3.477-.528.741-.792.223.244.609.477.639.741S82.406,23.769,82.091,24.246Z" transform="translate(1.213 0.335)" fill="#24b8eb" fill-rule="evenodd"/><path d="M96.881,24.246c-.376-.467-.792-.781-.741-.974.081-.3.477-.528.741-.792.223.244.609.477.629.741S97.2,23.769,96.881,24.246Z" transform="translate(1.434 0.335)" fill="#24b8eb" fill-rule="evenodd"/><path d="M.791,31.646C.415,31.179,0,30.865.05,30.662c.071-.3.477-.528.731-.792.223.244.609.477.629.741S1.106,31.159.791,31.646Z" transform="translate(0.001 0.445)" fill="#24b8eb" fill-rule="evenodd"/><path d="M15.571,31.636c-.376-.467-.792-.781-.741-.974.081-.3.477-.528.741-.792.223.244.609.477.629.741S15.886,31.169,15.571,31.636Z" transform="translate(0.221 0.446)" fill="#24b8eb" fill-rule="evenodd"/><path d="M30.351,31.646c-.365-.467-.792-.781-.741-.974.081-.3.477-.528.731-.792.223.244.609.477.629.741C31.011,30.875,30.666,31.159,30.351,31.646Z" transform="translate(0.442 0.446)" fill="#24b8eb" fill-rule="evenodd"/><path d="M46.1,30.57c-.436.355-.71.731-.954.721-.274-.01-.528-.386-.8-.6.254-.274.467-.66.771-.761C45.3,29.859,45.639,30.255,46.1,30.57Z" transform="translate(0.661 0.446)" fill="#24b8eb" fill-rule="evenodd"/><path d="M59.921,31.646c-.365-.467-.792-.781-.741-.974.071-.3.477-.528.731-.792.223.244.609.477.629.741S60.236,31.169,59.921,31.646Z" transform="translate(0.883 0.446)" fill="#24b8eb" fill-rule="evenodd"/><path d="M74.7,31.636c-.376-.467-.792-.781-.741-.974.081-.3.477-.528.731-.792.223.244.609.477.629.741C75.361,30.875,75.016,31.159,74.7,31.636Z" transform="translate(1.103 0.446)" fill="#24b8eb" fill-rule="evenodd"/><path d="M89.481,31.646c-.365-.467-.792-.781-.741-.974.081-.3.477-.528.731-.792.223.244.609.477.629.741C90.141,30.875,89.8,31.169,89.481,31.646Z" transform="translate(1.323 0.446)" fill="#24b8eb" fill-rule="evenodd"/><path d="M104.271,31.636c-.376-.467-.792-.781-.741-.974.081-.3.477-.528.741-.792.223.244.609.477.629.741S104.586,31.159,104.271,31.636Z" transform="translate(1.544 0.446)" fill="#24b8eb" fill-rule="evenodd"/><path d="M9.146,38.081c-.477.294-.781.629-1.025.589-.274-.041-.487-.436-.721-.68.274-.244.528-.619.842-.68C8.425,37.28,8.719,37.706,9.146,38.081Z" transform="translate(0.11 0.556)" fill="#24b8eb" fill-rule="evenodd"/><path d="M23.012,39.016c-.386-.436-.832-.731-.792-.924.061-.3.447-.548.7-.822.233.233.629.436.67.7S23.306,38.528,23.012,39.016Z" transform="translate(0.331 0.556)" fill="#24b8eb" fill-rule="evenodd"/><path d="M37.8,39.016c-.4-.436-.832-.731-.792-.924.061-.3.447-.548.7-.822.244.233.629.436.67.7S38.086,38.528,37.8,39.016Z" transform="translate(0.552 0.556)" fill="#24b8eb" fill-rule="evenodd"/><path d="M53.5,38.031c-.467.315-.751.67-.995.639-.274-.03-.507-.416-.751-.639.264-.254.5-.639.812-.71C52.745,37.269,53.049,37.685,53.5,38.031Z" transform="translate(0.772 0.557)" fill="#24b8eb" fill-rule="evenodd"/><path d="M67.311,39.036c-.376-.467-.792-.781-.741-.974.081-.3.477-.528.741-.792.223.244.609.477.629.741S67.626,38.549,67.311,39.036Z" transform="translate(0.993 0.556)" fill="#24b8eb" fill-rule="evenodd"/><path d="M82.061,36.96c.335.477.68.761.66,1-.02.274-.4.507-.619.761-.264-.254-.67-.467-.761-.771C81.3,37.762,81.705,37.437,82.061,36.96Z" transform="translate(1.213 0.551)" fill="#24b8eb" fill-rule="evenodd"/><path d="M96.922,36.97c.294.487.619.8.578,1.045-.041.264-.436.477-.67.7-.254-.274-.629-.518-.7-.822C96.1,37.7,96.536,37.406,96.922,36.97Z" transform="translate(1.434 0.551)" fill="#24b8eb" fill-rule="evenodd"/><path d="M.75,44.35c.335.477.69.751.67,1-.02.274-.4.518-.609.771-.274-.254-.67-.467-.761-.781C-.011,45.152.4,44.827.75,44.35Z" transform="translate(0.001 0.661)" fill="#24b8eb" fill-rule="evenodd"/><path d="M15.6,46.416c-.386-.447-.812-.751-.771-.954.071-.3.467-.538.721-.812.233.244.619.457.65.721S15.9,45.939,15.6,46.416Z" transform="translate(0.221 0.666)" fill="#24b8eb" fill-rule="evenodd"/><path d="M30.3,46.426c-.345-.477-.751-.812-.69-1,.091-.3.5-.507.771-.761.213.254.589.507.6.771S30.635,45.959,30.3,46.426Z" transform="translate(0.442 0.666)" fill="#24b8eb" fill-rule="evenodd"/><path d="M45.05,46.426c-.325-.487-.721-.832-.65-1.025.1-.294.507-.5.792-.741.213.264.578.518.578.792C45.77,45.705,45.4,45.969,45.05,46.426Z" transform="translate(0.662 0.666)" fill="#24b8eb" fill-rule="evenodd"/><path d="M60.886,45.39c-.447.335-.781.731-.964.68-.3-.091-.528-.487-.781-.751.264-.223.507-.589.781-.609C60.165,44.69,60.439,45.055,60.886,45.39Z" transform="translate(0.882 0.667)" fill="#24b8eb" fill-rule="evenodd"/><path d="M74.62,46.426c-.325-.487-.721-.832-.66-1.025.1-.294.507-.5.792-.741.213.264.568.518.578.792C75.34,45.705,74.975,45.969,74.62,46.426Z" transform="translate(1.103 0.666)" fill="#24b8eb" fill-rule="evenodd"/><path d="M89.451,44.35c.335.477.68.761.66,1-.02.274-.4.507-.619.761-.264-.254-.67-.477-.761-.781C88.689,45.152,89.1,44.827,89.451,44.35Z" transform="translate(1.323 0.661)" fill="#24b8eb" fill-rule="evenodd"/><path d="M104.322,44.36c.294.487.619.8.578,1.045-.041.264-.436.477-.67.71-.254-.274-.629-.518-.7-.832C103.489,45.1,103.926,44.8,104.322,44.36Z" transform="translate(1.544 0.662)" fill="#24b8eb" fill-rule="evenodd"/><path d="M9.146,52.79c-.457.335-.731.69-.984.67-.274-.02-.518-.4-.771-.629.264-.264.487-.65.792-.731C8.374,52.049,8.7,52.445,9.146,52.79Z" transform="translate(0.11 0.777)" fill="#24b8eb" fill-rule="evenodd"/><path d="M23.926,52.831c-.467.315-.761.66-1,.629-.274-.03-.5-.416-.751-.65.274-.254.507-.629.822-.71C23.185,52.049,23.489,52.476,23.926,52.831Z" transform="translate(0.331 0.777)" fill="#24b8eb" fill-rule="evenodd"/><path d="M37.8,53.8c-.4-.436-.832-.731-.792-.924.061-.3.447-.558.7-.822.244.233.629.436.67.7S38.086,53.319,37.8,53.8Z" transform="translate(0.552 0.776)" fill="#24b8eb" fill-rule="evenodd"/><path d="M52.48,51.74c.335.467.69.751.68,1s-.386.518-.609.771c-.274-.254-.67-.457-.761-.761C51.729,52.552,52.135,52.217,52.48,51.74Z" transform="translate(0.772 0.772)" fill="#24b8eb" fill-rule="evenodd"/><path d="M68.276,52.709c-.426.365-.731.792-.924.751-.315-.071-.558-.447-.832-.7.244-.233.467-.619.741-.66C67.5,52.059,67.809,52.4,68.276,52.709Z" transform="translate(0.992 0.777)" fill="#24b8eb" fill-rule="evenodd"/><path d="M82.091,53.816c-.376-.467-.792-.781-.741-.974.081-.3.477-.528.741-.792.223.244.609.477.639.741S82.406,53.339,82.091,53.816Z" transform="translate(1.213 0.776)" fill="#24b8eb" fill-rule="evenodd"/><path d="M96.9,53.806c-.386-.447-.812-.751-.771-.944.071-.3.457-.538.721-.8.233.244.619.457.65.721C97.541,53.024,97.206,53.329,96.9,53.806Z" transform="translate(1.434 0.776)" fill="#24b8eb" fill-rule="evenodd"/><path d="M.842,61.2c-.386-.436-.832-.731-.792-.924.061-.3.447-.548.7-.822.233.233.629.447.67.7S1.126,60.708.842,61.2Z" transform="translate(0.001 0.887)" fill="#24b8eb" fill-rule="evenodd"/><path d="M16.505,60.089c-.4.365-.66.781-.863.751-.315-.051-.579-.406-.863-.629.254-.254.467-.65.761-.731C15.744,59.429,16.069,59.8,16.505,60.089Z" transform="translate(0.22 0.887)" fill="#24b8eb" fill-rule="evenodd"/><path d="M30.351,61.206c-.365-.467-.792-.781-.741-.974.081-.3.477-.528.731-.792.223.244.609.477.629.741C31.011,60.435,30.666,60.729,30.351,61.206Z" transform="translate(0.442 0.887)" fill="#24b8eb" fill-rule="evenodd"/><path d="M45.141,61.206c-.365-.467-.792-.781-.741-.974.081-.3.477-.528.741-.792.223.244.609.477.629.741S45.445,60.729,45.141,61.206Z" transform="translate(0.662 0.887)" fill="#24b8eb" fill-rule="evenodd"/><path d="M59.921,61.206c-.365-.467-.792-.781-.741-.974.071-.3.477-.528.731-.792.223.244.609.477.629.741S60.236,60.729,59.921,61.206Z" transform="translate(0.883 0.887)" fill="#24b8eb" fill-rule="evenodd"/><path d="M74.7,61.206c-.376-.467-.792-.781-.741-.974.081-.3.477-.528.731-.792.223.244.609.477.629.741C75.361,60.435,75.016,60.729,74.7,61.206Z" transform="translate(1.103 0.887)" fill="#24b8eb" fill-rule="evenodd"/><path d="M88.44,60.14c.447-.315.771-.71.974-.65.294.081.507.487.751.761-.254.213-.507.6-.761.6C89.13,60.85,88.866,60.485,88.44,60.14Z" transform="translate(1.319 0.887)" fill="#24b8eb" fill-rule="evenodd"/><path d="M105.226,60.129c-.436.355-.7.741-.944.731-.274-.01-.538-.386-.8-.6.254-.274.457-.67.761-.771C104.434,59.429,104.769,59.815,105.226,60.129Z" transform="translate(1.543 0.887)" fill="#24b8eb" fill-rule="evenodd"/><path d="M9.146,67.651c-.477.294-.781.629-1.025.589-.274-.041-.487-.436-.721-.68.274-.244.528-.619.842-.68C8.425,66.85,8.719,67.276,9.146,67.651Z" transform="translate(0.11 0.997)" fill="#24b8eb" fill-rule="evenodd"/><path d="M22.91,68.6c-.345-.477-.751-.812-.69-1,.091-.3.5-.507.771-.761.213.254.589.507.6.771S23.245,68.129,22.91,68.6Z" transform="translate(0.331 0.997)" fill="#24b8eb" fill-rule="evenodd"/><path d="M38.706,67.54c-.447.345-.721.721-.964.7-.274-.02-.528-.386-.792-.609.254-.264.467-.66.781-.751C37.924,66.819,38.249,67.215,38.706,67.54Z" transform="translate(0.551 0.997)" fill="#24b8eb" fill-rule="evenodd"/><path d="M52.49,66.52c.335.477.69.751.67,1s-.4.507-.609.761c-.274-.254-.67-.467-.761-.771C51.729,67.332,52.135,67,52.49,66.52Z" transform="translate(0.772 0.992)" fill="#24b8eb" fill-rule="evenodd"/><path d="M66.25,67.54c.457-.325.781-.721.984-.66.294.081.507.487.751.751-.254.213-.507.589-.771.6S66.686,67.875,66.25,67.54Z" transform="translate(0.988 0.997)" fill="#24b8eb" fill-rule="evenodd"/><path d="M83.056,67.57c-.457.325-.731.69-.984.67-.274-.03-.518-.406-.771-.629.264-.264.487-.65.792-.731C82.295,66.829,82.609,67.235,83.056,67.57Z" transform="translate(1.213 0.997)" fill="#24b8eb" fill-rule="evenodd"/><path d="M97.836,67.509c-.436.355-.7.741-.944.731-.274-.01-.538-.376-.812-.589.254-.274.457-.67.761-.771C97.044,66.819,97.379,67.2,97.836,67.509Z" transform="translate(1.433 0.997)" fill="#24b8eb" fill-rule="evenodd"/><path d="M1.746,74.879c-.426.376-.731.8-.913.761-.315-.081-.558-.457-.832-.71.244-.233.467-.619.731-.66S1.279,74.585,1.746,74.879Z" transform="translate(0 1.108)" fill="#24b8eb" fill-rule="evenodd"/><path d="M15.52,73.91c.335.467.69.751.68,1-.02.274-.386.518-.609.771-.274-.254-.67-.467-.761-.771C14.769,74.722,15.175,74.4,15.52,73.91Z" transform="translate(0.221 1.102)" fill="#24b8eb" fill-rule="evenodd"/><path d="M31.316,75.041c-.477.294-.781.639-1.025.589-.274-.041-.487-.436-.721-.68.274-.244.528-.609.842-.68C30.605,74.24,30.889,74.666,31.316,75.041Z" transform="translate(0.441 1.108)" fill="#24b8eb" fill-rule="evenodd"/><path d="M45.08,75.986c-.345-.477-.751-.812-.69-1,.091-.3.5-.507.771-.761.213.254.589.507.6.771S45.425,75.529,45.08,75.986Z" transform="translate(0.662 1.107)" fill="#24b8eb" fill-rule="evenodd"/><path d="M59.87,73.91c.335.467.69.751.67,1-.02.274-.386.518-.609.771-.274-.254-.67-.467-.761-.771C59.119,74.722,59.525,74.4,59.87,73.91Z" transform="translate(0.882 1.102)" fill="#24b8eb" fill-rule="evenodd"/><path d="M74.66,73.91c.335.467.69.751.68,1-.02.274-.386.518-.609.771-.274-.254-.67-.467-.761-.771C73.9,74.732,74.305,74.4,74.66,73.91Z" transform="translate(1.103 1.102)" fill="#24b8eb" fill-rule="evenodd"/><path d="M89.481,76c-.365-.467-.792-.781-.741-.974.081-.3.477-.528.731-.792.223.244.609.477.629.741C90.141,75.225,89.8,75.509,89.481,76Z" transform="translate(1.323 1.107)" fill="#24b8eb" fill-rule="evenodd"/><path d="M104.231,73.91c.335.477.68.761.66,1.015-.02.274-.4.507-.619.761-.264-.254-.67-.467-.761-.781C103.469,74.722,103.875,74.387,104.231,73.91Z" transform="translate(1.544 1.102)" fill="#24b8eb" fill-rule="evenodd"/><path d="M9.146,82.3c-.436.355-.7.741-.954.721-.274-.01-.538-.376-.812-.589.254-.274.457-.67.761-.771C8.344,81.6,8.679,81.985,9.146,82.3Z" transform="translate(0.11 1.218)" fill="#24b8eb" fill-rule="evenodd"/><path d="M23.926,82.431c-.477.294-.781.629-1.025.589-.274-.041-.487-.436-.721-.68.274-.244.528-.619.842-.68C23.215,81.63,23.5,82.056,23.926,82.431Z" transform="translate(0.331 1.218)" fill="#24b8eb" fill-rule="evenodd"/><path d="M38.706,82.4c-.467.3-.761.66-1.015.619-.274-.041-.5-.426-.741-.66.274-.254.507-.629.822-.7C37.975,81.619,38.28,82.046,38.706,82.4Z" transform="translate(0.551 1.218)" fill="#24b8eb" fill-rule="evenodd"/><path d="M53.5,82.381c-.467.315-.751.67-.995.639-.274-.03-.507-.416-.751-.65.264-.254.5-.639.812-.71C52.745,81.619,53.049,82.025,53.5,82.381Z" transform="translate(0.772 1.218)" fill="#24b8eb" fill-rule="evenodd"/><path d="M67.311,83.386c-.376-.467-.792-.781-.741-.974.081-.3.477-.528.741-.792.223.244.609.477.629.741S67.626,82.9,67.311,83.386Z" transform="translate(0.993 1.217)" fill="#24b8eb" fill-rule="evenodd"/><path d="M82.091,83.386c-.376-.467-.792-.781-.741-.974.081-.3.477-.528.741-.792.223.244.609.477.639.741S82.406,82.9,82.091,83.386Z" transform="translate(1.213 1.217)" fill="#24b8eb" fill-rule="evenodd"/><path d="M96.881,83.386c-.376-.467-.792-.781-.741-.974.081-.3.477-.528.741-.792.223.244.609.477.629.741S97.185,82.9,96.881,83.386Z" transform="translate(1.434 1.217)" fill="#24b8eb" fill-rule="evenodd"/><path d="M1.746,89.72c-.447.345-.761.761-.954.7-.3-.091-.528-.477-.792-.741.254-.223.5-.6.771-.629C1.015,89.03,1.3,89.4,1.746,89.72Z" transform="translate(0 1.328)" fill="#24b8eb" fill-rule="evenodd"/><path d="M15.541,88.7c.335.477.68.761.66,1-.02.274-.4.507-.619.761-.264-.254-.67-.477-.761-.781C14.769,89.5,15.185,89.177,15.541,88.7Z" transform="translate(0.221 1.323)" fill="#24b8eb" fill-rule="evenodd"/><path d="M31.316,89.771c-.457.315-.8.71-.984.639-.3-.1-.518-.5-.761-.771.264-.213.528-.578.8-.589C30.615,89.04,30.879,89.426,31.316,89.771Z" transform="translate(0.441 1.328)" fill="#24b8eb" fill-rule="evenodd"/><path d="M46.1,89.781c-.467.315-.761.67-1,.639-.274-.03-.5-.416-.751-.65.274-.254.507-.629.822-.71C45.355,89.009,45.67,89.425,46.1,89.781Z" transform="translate(0.661 1.328)" fill="#24b8eb" fill-rule="evenodd"/><path d="M59.891,88.7c.335.477.68.761.66,1-.02.274-.4.507-.619.761-.264-.254-.67-.477-.761-.781C59.119,89.5,59.535,89.177,59.891,88.7Z" transform="translate(0.882 1.323)" fill="#24b8eb" fill-rule="evenodd"/><path d="M74.752,90.756c-.386-.436-.832-.731-.792-.924.061-.3.447-.548.7-.822.244.233.629.436.67.7S75.046,90.279,74.752,90.756Z" transform="translate(1.103 1.328)" fill="#24b8eb" fill-rule="evenodd"/><path d="M89.542,90.756c-.386-.436-.832-.731-.792-.924.061-.3.447-.548.7-.822.244.233.629.447.67.7S89.826,90.279,89.542,90.756Z" transform="translate(1.324 1.328)" fill="#24b8eb" fill-rule="evenodd"/><path d="M104.231,88.7c.335.477.68.761.66,1-.02.274-.4.507-.619.761-.264-.254-.67-.477-.761-.781C103.469,89.5,103.875,89.177,104.231,88.7Z" transform="translate(1.544 1.323)" fill="#24b8eb" fill-rule="evenodd"/><path d="M9.146,97.211c-.477.294-.781.629-1.025.589-.274-.041-.487-.436-.721-.68.274-.244.528-.619.842-.68C8.425,96.41,8.719,96.836,9.146,97.211Z" transform="translate(0.11 1.438)" fill="#24b8eb" fill-rule="evenodd"/><path d="M23.012,96.1c.294.487.619.8.579,1.045-.041.264-.436.467-.67.7-.254-.274-.629-.518-.69-.832C22.179,96.831,22.626,96.536,23.012,96.1Z" transform="translate(0.331 1.433)" fill="#24b8eb" fill-rule="evenodd"/><path d="M38.706,97.161c-.467.315-.751.67-1,.639-.274-.03-.507-.416-.751-.639.264-.254.507-.639.812-.71C37.965,96.4,38.269,96.815,38.706,97.161Z" transform="translate(0.551 1.438)" fill="#24b8eb" fill-rule="evenodd"/><path d="M52.5,96.09c.335.477.68.761.66,1-.02.264-.4.507-.619.761-.264-.254-.67-.467-.761-.771C51.729,96.892,52.135,96.567,52.5,96.09Z" transform="translate(0.772 1.433)" fill="#24b8eb" fill-rule="evenodd"/><path d="M68.276,97.191c-.467.3-.771.65-1.015.609-.274-.041-.5-.426-.731-.66.274-.244.518-.629.832-.69C67.545,96.409,67.849,96.826,68.276,97.191Z" transform="translate(0.992 1.438)" fill="#24b8eb" fill-rule="evenodd"/><path d="M81.04,97.11c.457-.325.781-.71.984-.66.294.081.507.487.751.751-.254.213-.507.589-.771.6S81.476,97.445,81.04,97.11Z" transform="translate(1.209 1.438)" fill="#24b8eb" fill-rule="evenodd"/><path d="M97.836,97.171c-.467.315-.761.66-1,.629-.274-.03-.5-.416-.751-.65.264-.254.507-.629.822-.71C97.095,96.4,97.41,96.816,97.836,97.171Z" transform="translate(1.433 1.438)" fill="#24b8eb" fill-rule="evenodd"/><path d="M1.746,104.581c-.467.3-.771.65-1.015.619-.274-.041-.5-.426-.731-.67.274-.244.518-.629.832-.69C1.025,103.8,1.319,104.226,1.746,104.581Z" transform="translate(0 1.549)" fill="#24b8eb" fill-rule="evenodd"/><path d="M16.536,104.581c-.467.3-.771.65-1.015.619-.274-.041-.5-.426-.731-.67.274-.244.518-.629.832-.69C15.8,103.8,16.109,104.226,16.536,104.581Z" transform="translate(0.221 1.549)" fill="#24b8eb" fill-rule="evenodd"/><path d="M31.316,104.571c-.467.315-.8.7-.995.629-.3-.112-.507-.507-.761-.781.274-.213.538-.579.812-.579C30.626,103.83,30.879,104.216,31.316,104.571Z" transform="translate(0.441 1.549)" fill="#24b8eb" fill-rule="evenodd"/><path d="M45.141,105.556c-.365-.467-.792-.781-.741-.974.081-.3.477-.528.741-.792.223.244.609.477.629.741S45.445,105.079,45.141,105.556Z" transform="translate(0.662 1.548)" fill="#24b8eb" fill-rule="evenodd"/><path d="M60.886,104.571c-.467.315-.8.7-.995.629-.3-.112-.507-.507-.761-.781.264-.213.528-.568.812-.579C60.186,103.83,60.449,104.216,60.886,104.571Z" transform="translate(0.882 1.549)" fill="#24b8eb" fill-rule="evenodd"/><path d="M74.65,105.556c-.345-.477-.751-.812-.69-1,.091-.3.5-.507.771-.761.213.254.589.507.6.771S74.985,105.089,74.65,105.556Z" transform="translate(1.103 1.548)" fill="#24b8eb" fill-rule="evenodd"/><path d="M90.446,104.571c-.467.3-.761.66-1,.629-.274-.041-.5-.426-.741-.66.274-.254.507-.629.822-.7C89.715,103.8,90.019,104.216,90.446,104.571Z" transform="translate(1.323 1.549)" fill="#24b8eb" fill-rule="evenodd"/><path d="M105.226,104.49c-.436.355-.71.731-.954.721-.274-.01-.538-.386-.8-.6.254-.274.467-.67.771-.761C104.444,103.779,104.769,104.165,105.226,104.49Z" transform="translate(1.543 1.549)" fill="#24b8eb" fill-rule="evenodd"/><path d="M9.146,112c-.477.294-.781.629-1.025.589-.274-.041-.487-.436-.721-.68.274-.244.528-.619.842-.68C8.425,111.189,8.719,111.626,9.146,112Z" transform="translate(0.11 1.659)" fill="#24b8eb" fill-rule="evenodd"/><path d="M23.926,111.951c-.467.315-.751.67-.995.639-.274-.03-.507-.416-.751-.639.264-.254.5-.639.812-.71C23.175,111.179,23.489,111.6,23.926,111.951Z" transform="translate(0.331 1.659)" fill="#24b8eb" fill-rule="evenodd"/><path d="M38.706,111.89c-.447.345-.721.71-.964.7-.274-.02-.528-.386-.792-.609.254-.264.467-.66.781-.751C37.924,111.169,38.249,111.565,38.706,111.89Z" transform="translate(0.551 1.659)" fill="#24b8eb" fill-rule="evenodd"/><path d="M53.5,111.971c-.467.3-.761.66-1,.619-.274-.041-.5-.426-.741-.66.274-.254.507-.629.822-.7C52.755,111.189,53.059,111.606,53.5,111.971Z" transform="translate(0.772 1.659)" fill="#24b8eb" fill-rule="evenodd"/><path d="M68.276,111.839c-.426.365-.731.792-.924.751-.315-.071-.558-.447-.832-.7.244-.233.467-.619.741-.66C67.5,111.189,67.809,111.535,68.276,111.839Z" transform="translate(0.992 1.659)" fill="#24b8eb" fill-rule="evenodd"/><path d="M82.04,112.946c-.345-.477-.751-.812-.69-1,.091-.3.5-.507.771-.761.213.254.589.507.6.771S82.385,112.479,82.04,112.946Z" transform="translate(1.213 1.658)" fill="#24b8eb" fill-rule="evenodd"/><path d="M97.836,111.859c-.436.355-.7.741-.944.731-.274-.01-.538-.376-.812-.589.254-.274.457-.67.761-.771C97.044,111.169,97.379,111.555,97.836,111.859Z" transform="translate(1.433 1.659)" fill="#24b8eb" fill-rule="evenodd"/></g><g transform="translate(1542.482 184.24)"><path d="M.7,2.076C.375,1.589-.021,1.244.05,1.051.152.756.558.553.842.32c.2.264.568.518.579.792C1.42,1.355,1.055,1.619.7,2.076Z" transform="translate(0.001 0.005)" fill="#24b8eb" fill-rule="evenodd"/><path d="M15.571,2.076c-.376-.467-.792-.781-.741-.974.081-.3.477-.528.741-.792.223.244.609.477.629.741S15.886,1.6,15.571,2.076Z" transform="translate(0.221 0.005)" fill="#24b8eb" fill-rule="evenodd"/><path d="M30.351,2.076c-.365-.467-.792-.781-.741-.974.081-.3.477-.528.731-.792.223.244.609.477.629.741C31.011,1.3,30.666,1.6,30.351,2.076Z" transform="translate(0.442 0.005)" fill="#24b8eb" fill-rule="evenodd"/><path d="M45.141,2.076c-.365-.467-.792-.781-.741-.974.081-.3.477-.528.741-.792.223.244.609.477.629.741S45.445,1.6,45.141,2.076Z" transform="translate(0.662 0.005)" fill="#24b8eb" fill-rule="evenodd"/><path d="M59.921,2.076c-.365-.467-.792-.781-.741-.974.071-.3.477-.528.731-.792.223.244.609.477.629.741S60.236,1.6,59.921,2.076Z" transform="translate(0.883 0.005)" fill="#24b8eb" fill-rule="evenodd"/><path d="M74.7,2.076c-.376-.467-.792-.781-.741-.974.081-.3.477-.528.731-.792.223.244.609.477.629.741C75.361,1.3,75.016,1.6,74.7,2.076Z" transform="translate(1.103 0.005)" fill="#24b8eb" fill-rule="evenodd"/><path d="M89.45,0c.335.477.69.751.67,1-.02.274-.4.518-.609.771-.274-.254-.67-.467-.761-.781C88.689.8,89.1.477,89.45,0Z" transform="translate(1.324)" fill="#24b8eb" fill-rule="evenodd"/><path d="M105.236,1.071c-.457.315-.751.68-.995.65-.274-.03-.507-.416-.751-.65.264-.254.5-.639.812-.71C104.485.309,104.789.725,105.236,1.071Z" transform="translate(1.544 0.005)" fill="#24b8eb" fill-rule="evenodd"/><path d="M9.146,8.4c-.436.345-.71.721-.954.71-.284-.02-.538-.386-.8-.6.254-.274.467-.67.771-.761C8.354,7.689,8.689,8.075,9.146,8.4Z" transform="translate(0.11 0.115)" fill="#24b8eb" fill-rule="evenodd"/><path d="M22.91,7.39c.335.467.69.751.68,1-.02.274-.386.518-.609.771-.274-.254-.67-.457-.761-.761C22.159,8.2,22.565,7.867,22.91,7.39Z" transform="translate(0.331 0.11)" fill="#24b8eb" fill-rule="evenodd"/><path d="M37.792,7.4c.284.487.619.8.579,1.045-.041.264-.436.477-.67.7-.254-.274-.629-.518-.7-.822C36.959,8.141,37.406,7.847,37.792,7.4Z" transform="translate(0.552 0.11)" fill="#24b8eb" fill-rule="evenodd"/><path d="M52.44,9.466c-.325-.487-.721-.832-.66-1.015.1-.3.507-.5.792-.741.2.264.568.518.578.792C53.16,8.745,52.795,9.009,52.44,9.466Z" transform="translate(0.772 0.115)" fill="#24b8eb" fill-rule="evenodd"/><path d="M67.362,9.456c-.386-.436-.832-.731-.792-.924.061-.3.447-.558.7-.822.244.233.629.436.67.7S67.646,8.968,67.362,9.456Z" transform="translate(0.993 0.115)" fill="#24b8eb" fill-rule="evenodd"/><path d="M82.04,9.466c-.345-.477-.751-.812-.69-1,.091-.3.5-.507.771-.761.213.254.589.507.6.771S82.385,9,82.04,9.466Z" transform="translate(1.213 0.115)" fill="#24b8eb" fill-rule="evenodd"/><path d="M97.846,8.44c-.457.325-.731.69-.984.67-.274-.02-.518-.406-.771-.629.264-.264.487-.65.792-.731C97.074,7.7,97.4,8.1,97.846,8.44Z" transform="translate(1.433 0.116)" fill="#24b8eb" fill-rule="evenodd"/><path d="M1.746,15.871c-.467.3-.761.66-1,.629-.274-.03-.5-.426-.741-.66.274-.254.507-.629.822-.7C1.015,15.1,1.319,15.516,1.746,15.871Z" transform="translate(0 0.226)" fill="#24b8eb" fill-rule="evenodd"/><path d="M16.526,15.911c-.477.294-.781.629-1.025.6-.274-.041-.487-.436-.721-.68.274-.244.528-.619.842-.68C15.825,15.109,16.11,15.536,16.526,15.911Z" transform="translate(0.22 0.226)" fill="#24b8eb" fill-rule="evenodd"/><path d="M30.31,14.78c.335.477.69.751.68,1-.02.274-.386.518-.609.771-.274-.254-.67-.467-.761-.771C29.549,15.592,29.955,15.257,30.31,14.78Z" transform="translate(0.442 0.22)" fill="#24b8eb" fill-rule="evenodd"/><path d="M46.1,15.861c-.457.315-.751.67-.995.65-.274-.03-.507-.416-.751-.65.264-.254.5-.639.812-.721C45.355,15.089,45.659,15.505,46.1,15.861Z" transform="translate(0.661 0.226)" fill="#24b8eb" fill-rule="evenodd"/><path d="M59.941,16.856c-.376-.447-.812-.751-.761-.954.071-.3.457-.538.71-.8.233.244.619.457.65.721S60.246,16.369,59.941,16.856Z" transform="translate(0.883 0.225)" fill="#24b8eb" fill-rule="evenodd"/><path d="M75.666,15.911c-.477.294-.781.629-1.025.6-.274-.041-.487-.436-.721-.68.274-.244.528-.619.842-.68C74.955,15.109,75.239,15.536,75.666,15.911Z" transform="translate(1.102 0.226)" fill="#24b8eb" fill-rule="evenodd"/><path d="M90.446,15.871c-.467.3-.761.66-1,.629-.274-.041-.5-.426-.741-.66.274-.254.507-.629.822-.7C89.715,15.1,90.019,15.516,90.446,15.871Z" transform="translate(1.323 0.226)" fill="#24b8eb" fill-rule="evenodd"/><path d="M105.205,15.739c-.4.365-.66.792-.863.761-.315-.051-.579-.406-.863-.629.254-.264.467-.65.761-.731C104.444,15.079,104.769,15.455,105.205,15.739Z" transform="translate(1.543 0.226)" fill="#24b8eb" fill-rule="evenodd"/><path d="M9.146,23.3c-.477.294-.781.629-1.025.589-.274-.041-.487-.436-.721-.68.274-.244.528-.619.842-.68C8.425,22.5,8.719,22.926,9.146,23.3Z" transform="translate(0.11 0.336)" fill="#24b8eb" fill-rule="evenodd"/><path d="M21.9,23.19c.457-.325.781-.71.984-.66.294.081.507.487.751.751-.254.213-.507.6-.771.6S22.347,23.525,21.9,23.19Z" transform="translate(0.327 0.336)" fill="#24b8eb" fill-rule="evenodd"/><path d="M37.751,24.246c-.376-.467-.792-.781-.741-.974.081-.3.477-.528.731-.792.223.244.609.477.639.741S38.055,23.769,37.751,24.246Z" transform="translate(0.552 0.335)" fill="#24b8eb" fill-rule="evenodd"/><path d="M52.531,24.246c-.376-.467-.792-.781-.741-.974.081-.3.477-.528.741-.792.223.244.609.477.629.741S52.846,23.769,52.531,24.246Z" transform="translate(0.772 0.335)" fill="#24b8eb" fill-rule="evenodd"/><path d="M67.311,24.246c-.376-.467-.792-.781-.741-.974.081-.3.477-.528.741-.792.223.244.609.477.629.741S67.626,23.769,67.311,24.246Z" transform="translate(0.993 0.335)" fill="#24b8eb" fill-rule="evenodd"/><path d="M82.091,24.246c-.376-.467-.792-.781-.741-.974.081-.3.477-.528.741-.792.223.244.609.477.639.741S82.406,23.769,82.091,24.246Z" transform="translate(1.213 0.335)" fill="#24b8eb" fill-rule="evenodd"/><path d="M96.881,24.246c-.376-.467-.792-.781-.741-.974.081-.3.477-.528.741-.792.223.244.609.477.629.741S97.2,23.769,96.881,24.246Z" transform="translate(1.434 0.335)" fill="#24b8eb" fill-rule="evenodd"/><path d="M.791,31.646C.415,31.179,0,30.865.05,30.662c.071-.3.477-.528.731-.792.223.244.609.477.629.741S1.106,31.159.791,31.646Z" transform="translate(0.001 0.445)" fill="#24b8eb" fill-rule="evenodd"/><path d="M15.571,31.636c-.376-.467-.792-.781-.741-.974.081-.3.477-.528.741-.792.223.244.609.477.629.741S15.886,31.169,15.571,31.636Z" transform="translate(0.221 0.446)" fill="#24b8eb" fill-rule="evenodd"/><path d="M30.351,31.646c-.365-.467-.792-.781-.741-.974.081-.3.477-.528.731-.792.223.244.609.477.629.741C31.011,30.875,30.666,31.159,30.351,31.646Z" transform="translate(0.442 0.446)" fill="#24b8eb" fill-rule="evenodd"/><path d="M46.1,30.57c-.436.355-.71.731-.954.721-.274-.01-.528-.386-.8-.6.254-.274.467-.66.771-.761C45.3,29.859,45.639,30.255,46.1,30.57Z" transform="translate(0.661 0.446)" fill="#24b8eb" fill-rule="evenodd"/><path d="M59.921,31.646c-.365-.467-.792-.781-.741-.974.071-.3.477-.528.731-.792.223.244.609.477.629.741S60.236,31.169,59.921,31.646Z" transform="translate(0.883 0.446)" fill="#24b8eb" fill-rule="evenodd"/><path d="M74.7,31.636c-.376-.467-.792-.781-.741-.974.081-.3.477-.528.731-.792.223.244.609.477.629.741C75.361,30.875,75.016,31.159,74.7,31.636Z" transform="translate(1.103 0.446)" fill="#24b8eb" fill-rule="evenodd"/><path d="M89.481,31.646c-.365-.467-.792-.781-.741-.974.081-.3.477-.528.731-.792.223.244.609.477.629.741C90.141,30.875,89.8,31.169,89.481,31.646Z" transform="translate(1.323 0.446)" fill="#24b8eb" fill-rule="evenodd"/><path d="M104.271,31.636c-.376-.467-.792-.781-.741-.974.081-.3.477-.528.741-.792.223.244.609.477.629.741S104.586,31.159,104.271,31.636Z" transform="translate(1.544 0.446)" fill="#24b8eb" fill-rule="evenodd"/><path d="M9.146,38.081c-.477.294-.781.629-1.025.589-.274-.041-.487-.436-.721-.68.274-.244.528-.619.842-.68C8.425,37.28,8.719,37.706,9.146,38.081Z" transform="translate(0.11 0.556)" fill="#24b8eb" fill-rule="evenodd"/><path d="M23.012,39.016c-.386-.436-.832-.731-.792-.924.061-.3.447-.548.7-.822.233.233.629.436.67.7S23.306,38.528,23.012,39.016Z" transform="translate(0.331 0.556)" fill="#24b8eb" fill-rule="evenodd"/><path d="M37.8,39.016c-.4-.436-.832-.731-.792-.924.061-.3.447-.548.7-.822.244.233.629.436.67.7S38.086,38.528,37.8,39.016Z" transform="translate(0.552 0.556)" fill="#24b8eb" fill-rule="evenodd"/><path d="M53.5,38.031c-.467.315-.751.67-.995.639-.274-.03-.507-.416-.751-.639.264-.254.5-.639.812-.71C52.745,37.269,53.049,37.685,53.5,38.031Z" transform="translate(0.772 0.557)" fill="#24b8eb" fill-rule="evenodd"/><path d="M67.311,39.036c-.376-.467-.792-.781-.741-.974.081-.3.477-.528.741-.792.223.244.609.477.629.741S67.626,38.549,67.311,39.036Z" transform="translate(0.993 0.556)" fill="#24b8eb" fill-rule="evenodd"/><path d="M82.061,36.96c.335.477.68.761.66,1-.02.274-.4.507-.619.761-.264-.254-.67-.467-.761-.771C81.3,37.762,81.705,37.437,82.061,36.96Z" transform="translate(1.213 0.551)" fill="#24b8eb" fill-rule="evenodd"/><path d="M96.922,36.97c.294.487.619.8.578,1.045-.041.264-.436.477-.67.7-.254-.274-.629-.518-.7-.822C96.1,37.7,96.536,37.406,96.922,36.97Z" transform="translate(1.434 0.551)" fill="#24b8eb" fill-rule="evenodd"/><path d="M.75,44.35c.335.477.69.751.67,1-.02.274-.4.518-.609.771-.274-.254-.67-.467-.761-.781C-.011,45.152.4,44.827.75,44.35Z" transform="translate(0.001 0.661)" fill="#24b8eb" fill-rule="evenodd"/><path d="M15.6,46.416c-.386-.447-.812-.751-.771-.954.071-.3.467-.538.721-.812.233.244.619.457.65.721S15.9,45.939,15.6,46.416Z" transform="translate(0.221 0.666)" fill="#24b8eb" fill-rule="evenodd"/><path d="M30.3,46.426c-.345-.477-.751-.812-.69-1,.091-.3.5-.507.771-.761.213.254.589.507.6.771S30.635,45.959,30.3,46.426Z" transform="translate(0.442 0.666)" fill="#24b8eb" fill-rule="evenodd"/><path d="M45.05,46.426c-.325-.487-.721-.832-.65-1.025.1-.294.507-.5.792-.741.213.264.578.518.578.792C45.77,45.705,45.4,45.969,45.05,46.426Z" transform="translate(0.662 0.666)" fill="#24b8eb" fill-rule="evenodd"/><path d="M60.886,45.39c-.447.335-.781.731-.964.68-.3-.091-.528-.487-.781-.751.264-.223.507-.589.781-.609C60.165,44.69,60.439,45.055,60.886,45.39Z" transform="translate(0.882 0.667)" fill="#24b8eb" fill-rule="evenodd"/><path d="M74.62,46.426c-.325-.487-.721-.832-.66-1.025.1-.294.507-.5.792-.741.213.264.568.518.578.792C75.34,45.705,74.975,45.969,74.62,46.426Z" transform="translate(1.103 0.666)" fill="#24b8eb" fill-rule="evenodd"/><path d="M89.451,44.35c.335.477.68.761.66,1-.02.274-.4.507-.619.761-.264-.254-.67-.477-.761-.781C88.689,45.152,89.1,44.827,89.451,44.35Z" transform="translate(1.323 0.661)" fill="#24b8eb" fill-rule="evenodd"/><path d="M104.322,44.36c.294.487.619.8.578,1.045-.041.264-.436.477-.67.71-.254-.274-.629-.518-.7-.832C103.489,45.1,103.926,44.8,104.322,44.36Z" transform="translate(1.544 0.662)" fill="#24b8eb" fill-rule="evenodd"/><path d="M9.146,52.79c-.457.335-.731.69-.984.67-.274-.02-.518-.4-.771-.629.264-.264.487-.65.792-.731C8.374,52.049,8.7,52.445,9.146,52.79Z" transform="translate(0.11 0.777)" fill="#24b8eb" fill-rule="evenodd"/><path d="M23.926,52.831c-.467.315-.761.66-1,.629-.274-.03-.5-.416-.751-.65.274-.254.507-.629.822-.71C23.185,52.049,23.489,52.476,23.926,52.831Z" transform="translate(0.331 0.777)" fill="#24b8eb" fill-rule="evenodd"/><path d="M37.8,53.8c-.4-.436-.832-.731-.792-.924.061-.3.447-.558.7-.822.244.233.629.436.67.7S38.086,53.319,37.8,53.8Z" transform="translate(0.552 0.776)" fill="#24b8eb" fill-rule="evenodd"/><path d="M52.48,51.74c.335.467.69.751.68,1s-.386.518-.609.771c-.274-.254-.67-.457-.761-.761C51.729,52.552,52.135,52.217,52.48,51.74Z" transform="translate(0.772 0.772)" fill="#24b8eb" fill-rule="evenodd"/><path d="M68.276,52.709c-.426.365-.731.792-.924.751-.315-.071-.558-.447-.832-.7.244-.233.467-.619.741-.66C67.5,52.059,67.809,52.4,68.276,52.709Z" transform="translate(0.992 0.777)" fill="#24b8eb" fill-rule="evenodd"/><path d="M82.091,53.816c-.376-.467-.792-.781-.741-.974.081-.3.477-.528.741-.792.223.244.609.477.639.741S82.406,53.339,82.091,53.816Z" transform="translate(1.213 0.776)" fill="#24b8eb" fill-rule="evenodd"/><path d="M96.9,53.806c-.386-.447-.812-.751-.771-.944.071-.3.457-.538.721-.8.233.244.619.457.65.721C97.541,53.024,97.206,53.329,96.9,53.806Z" transform="translate(1.434 0.776)" fill="#24b8eb" fill-rule="evenodd"/><path d="M.842,61.2c-.386-.436-.832-.731-.792-.924.061-.3.447-.548.7-.822.233.233.629.447.67.7S1.126,60.708.842,61.2Z" transform="translate(0.001 0.887)" fill="#24b8eb" fill-rule="evenodd"/><path d="M16.505,60.089c-.4.365-.66.781-.863.751-.315-.051-.579-.406-.863-.629.254-.254.467-.65.761-.731C15.744,59.429,16.069,59.8,16.505,60.089Z" transform="translate(0.22 0.887)" fill="#24b8eb" fill-rule="evenodd"/><path d="M30.351,61.206c-.365-.467-.792-.781-.741-.974.081-.3.477-.528.731-.792.223.244.609.477.629.741C31.011,60.435,30.666,60.729,30.351,61.206Z" transform="translate(0.442 0.887)" fill="#24b8eb" fill-rule="evenodd"/><path d="M45.141,61.206c-.365-.467-.792-.781-.741-.974.081-.3.477-.528.741-.792.223.244.609.477.629.741S45.445,60.729,45.141,61.206Z" transform="translate(0.662 0.887)" fill="#24b8eb" fill-rule="evenodd"/><path d="M59.921,61.206c-.365-.467-.792-.781-.741-.974.071-.3.477-.528.731-.792.223.244.609.477.629.741S60.236,60.729,59.921,61.206Z" transform="translate(0.883 0.887)" fill="#24b8eb" fill-rule="evenodd"/><path d="M74.7,61.206c-.376-.467-.792-.781-.741-.974.081-.3.477-.528.731-.792.223.244.609.477.629.741C75.361,60.435,75.016,60.729,74.7,61.206Z" transform="translate(1.103 0.887)" fill="#24b8eb" fill-rule="evenodd"/><path d="M88.44,60.14c.447-.315.771-.71.974-.65.294.081.507.487.751.761-.254.213-.507.6-.761.6C89.13,60.85,88.866,60.485,88.44,60.14Z" transform="translate(1.319 0.887)" fill="#24b8eb" fill-rule="evenodd"/><path d="M105.226,60.129c-.436.355-.7.741-.944.731-.274-.01-.538-.386-.8-.6.254-.274.457-.67.761-.771C104.434,59.429,104.769,59.815,105.226,60.129Z" transform="translate(1.543 0.887)" fill="#24b8eb" fill-rule="evenodd"/><path d="M9.146,67.651c-.477.294-.781.629-1.025.589-.274-.041-.487-.436-.721-.68.274-.244.528-.619.842-.68C8.425,66.85,8.719,67.276,9.146,67.651Z" transform="translate(0.11 0.997)" fill="#24b8eb" fill-rule="evenodd"/><path d="M22.91,68.6c-.345-.477-.751-.812-.69-1,.091-.3.5-.507.771-.761.213.254.589.507.6.771S23.245,68.129,22.91,68.6Z" transform="translate(0.331 0.997)" fill="#24b8eb" fill-rule="evenodd"/><path d="M38.706,67.54c-.447.345-.721.721-.964.7-.274-.02-.528-.386-.792-.609.254-.264.467-.66.781-.751C37.924,66.819,38.249,67.215,38.706,67.54Z" transform="translate(0.551 0.997)" fill="#24b8eb" fill-rule="evenodd"/><path d="M52.49,66.52c.335.477.69.751.67,1s-.4.507-.609.761c-.274-.254-.67-.467-.761-.771C51.729,67.332,52.135,67,52.49,66.52Z" transform="translate(0.772 0.992)" fill="#24b8eb" fill-rule="evenodd"/><path d="M66.25,67.54c.457-.325.781-.721.984-.66.294.081.507.487.751.751-.254.213-.507.589-.771.6S66.686,67.875,66.25,67.54Z" transform="translate(0.988 0.997)" fill="#24b8eb" fill-rule="evenodd"/><path d="M83.056,67.57c-.457.325-.731.69-.984.67-.274-.03-.518-.406-.771-.629.264-.264.487-.65.792-.731C82.295,66.829,82.609,67.235,83.056,67.57Z" transform="translate(1.213 0.997)" fill="#24b8eb" fill-rule="evenodd"/><path d="M97.836,67.509c-.436.355-.7.741-.944.731-.274-.01-.538-.376-.812-.589.254-.274.457-.67.761-.771C97.044,66.819,97.379,67.2,97.836,67.509Z" transform="translate(1.433 0.997)" fill="#24b8eb" fill-rule="evenodd"/><path d="M1.746,74.879c-.426.376-.731.8-.913.761-.315-.081-.558-.457-.832-.71.244-.233.467-.619.731-.66S1.279,74.585,1.746,74.879Z" transform="translate(0 1.108)" fill="#24b8eb" fill-rule="evenodd"/><path d="M15.52,73.91c.335.467.69.751.68,1-.02.274-.386.518-.609.771-.274-.254-.67-.467-.761-.771C14.769,74.722,15.175,74.4,15.52,73.91Z" transform="translate(0.221 1.102)" fill="#24b8eb" fill-rule="evenodd"/><path d="M31.316,75.041c-.477.294-.781.639-1.025.589-.274-.041-.487-.436-.721-.68.274-.244.528-.609.842-.68C30.605,74.24,30.889,74.666,31.316,75.041Z" transform="translate(0.441 1.108)" fill="#24b8eb" fill-rule="evenodd"/><path d="M45.08,75.986c-.345-.477-.751-.812-.69-1,.091-.3.5-.507.771-.761.213.254.589.507.6.771S45.425,75.529,45.08,75.986Z" transform="translate(0.662 1.107)" fill="#24b8eb" fill-rule="evenodd"/><path d="M59.87,73.91c.335.467.69.751.67,1-.02.274-.386.518-.609.771-.274-.254-.67-.467-.761-.771C59.119,74.722,59.525,74.4,59.87,73.91Z" transform="translate(0.882 1.102)" fill="#24b8eb" fill-rule="evenodd"/><path d="M74.66,73.91c.335.467.69.751.68,1-.02.274-.386.518-.609.771-.274-.254-.67-.467-.761-.771C73.9,74.732,74.305,74.4,74.66,73.91Z" transform="translate(1.103 1.102)" fill="#24b8eb" fill-rule="evenodd"/><path d="M89.481,76c-.365-.467-.792-.781-.741-.974.081-.3.477-.528.731-.792.223.244.609.477.629.741C90.141,75.225,89.8,75.509,89.481,76Z" transform="translate(1.323 1.107)" fill="#24b8eb" fill-rule="evenodd"/><path d="M104.231,73.91c.335.477.68.761.66,1.015-.02.274-.4.507-.619.761-.264-.254-.67-.467-.761-.781C103.469,74.722,103.875,74.387,104.231,73.91Z" transform="translate(1.544 1.102)" fill="#24b8eb" fill-rule="evenodd"/><path d="M9.146,82.3c-.436.355-.7.741-.954.721-.274-.01-.538-.376-.812-.589.254-.274.457-.67.761-.771C8.344,81.6,8.679,81.985,9.146,82.3Z" transform="translate(0.11 1.218)" fill="#24b8eb" fill-rule="evenodd"/><path d="M23.926,82.431c-.477.294-.781.629-1.025.589-.274-.041-.487-.436-.721-.68.274-.244.528-.619.842-.68C23.215,81.63,23.5,82.056,23.926,82.431Z" transform="translate(0.331 1.218)" fill="#24b8eb" fill-rule="evenodd"/><path d="M38.706,82.4c-.467.3-.761.66-1.015.619-.274-.041-.5-.426-.741-.66.274-.254.507-.629.822-.7C37.975,81.619,38.28,82.046,38.706,82.4Z" transform="translate(0.551 1.218)" fill="#24b8eb" fill-rule="evenodd"/><path d="M53.5,82.381c-.467.315-.751.67-.995.639-.274-.03-.507-.416-.751-.65.264-.254.5-.639.812-.71C52.745,81.619,53.049,82.025,53.5,82.381Z" transform="translate(0.772 1.218)" fill="#24b8eb" fill-rule="evenodd"/><path d="M67.311,83.386c-.376-.467-.792-.781-.741-.974.081-.3.477-.528.741-.792.223.244.609.477.629.741S67.626,82.9,67.311,83.386Z" transform="translate(0.993 1.217)" fill="#24b8eb" fill-rule="evenodd"/><path d="M82.091,83.386c-.376-.467-.792-.781-.741-.974.081-.3.477-.528.741-.792.223.244.609.477.639.741S82.406,82.9,82.091,83.386Z" transform="translate(1.213 1.217)" fill="#24b8eb" fill-rule="evenodd"/><path d="M96.881,83.386c-.376-.467-.792-.781-.741-.974.081-.3.477-.528.741-.792.223.244.609.477.629.741S97.185,82.9,96.881,83.386Z" transform="translate(1.434 1.217)" fill="#24b8eb" fill-rule="evenodd"/><path d="M1.746,89.72c-.447.345-.761.761-.954.7-.3-.091-.528-.477-.792-.741.254-.223.5-.6.771-.629C1.015,89.03,1.3,89.4,1.746,89.72Z" transform="translate(0 1.328)" fill="#24b8eb" fill-rule="evenodd"/><path d="M15.541,88.7c.335.477.68.761.66,1-.02.274-.4.507-.619.761-.264-.254-.67-.477-.761-.781C14.769,89.5,15.185,89.177,15.541,88.7Z" transform="translate(0.221 1.323)" fill="#24b8eb" fill-rule="evenodd"/><path d="M31.316,89.771c-.457.315-.8.71-.984.639-.3-.1-.518-.5-.761-.771.264-.213.528-.578.8-.589C30.615,89.04,30.879,89.426,31.316,89.771Z" transform="translate(0.441 1.328)" fill="#24b8eb" fill-rule="evenodd"/><path d="M46.1,89.781c-.467.315-.761.67-1,.639-.274-.03-.5-.416-.751-.65.274-.254.507-.629.822-.71C45.355,89.009,45.67,89.425,46.1,89.781Z" transform="translate(0.661 1.328)" fill="#24b8eb" fill-rule="evenodd"/><path d="M59.891,88.7c.335.477.68.761.66,1-.02.274-.4.507-.619.761-.264-.254-.67-.477-.761-.781C59.119,89.5,59.535,89.177,59.891,88.7Z" transform="translate(0.882 1.323)" fill="#24b8eb" fill-rule="evenodd"/><path d="M74.752,90.756c-.386-.436-.832-.731-.792-.924.061-.3.447-.548.7-.822.244.233.629.436.67.7S75.046,90.279,74.752,90.756Z" transform="translate(1.103 1.328)" fill="#24b8eb" fill-rule="evenodd"/><path d="M89.542,90.756c-.386-.436-.832-.731-.792-.924.061-.3.447-.548.7-.822.244.233.629.447.67.7S89.826,90.279,89.542,90.756Z" transform="translate(1.324 1.328)" fill="#24b8eb" fill-rule="evenodd"/><path d="M104.231,88.7c.335.477.68.761.66,1-.02.274-.4.507-.619.761-.264-.254-.67-.477-.761-.781C103.469,89.5,103.875,89.177,104.231,88.7Z" transform="translate(1.544 1.323)" fill="#24b8eb" fill-rule="evenodd"/><path d="M9.146,97.211c-.477.294-.781.629-1.025.589-.274-.041-.487-.436-.721-.68.274-.244.528-.619.842-.68C8.425,96.41,8.719,96.836,9.146,97.211Z" transform="translate(0.11 1.438)" fill="#24b8eb" fill-rule="evenodd"/><path d="M23.012,96.1c.294.487.619.8.579,1.045-.041.264-.436.467-.67.7-.254-.274-.629-.518-.69-.832C22.179,96.831,22.626,96.536,23.012,96.1Z" transform="translate(0.331 1.433)" fill="#24b8eb" fill-rule="evenodd"/><path d="M38.706,97.161c-.467.315-.751.67-1,.639-.274-.03-.507-.416-.751-.639.264-.254.507-.639.812-.71C37.965,96.4,38.269,96.815,38.706,97.161Z" transform="translate(0.551 1.438)" fill="#24b8eb" fill-rule="evenodd"/><path d="M52.5,96.09c.335.477.68.761.66,1-.02.264-.4.507-.619.761-.264-.254-.67-.467-.761-.771C51.729,96.892,52.135,96.567,52.5,96.09Z" transform="translate(0.772 1.433)" fill="#24b8eb" fill-rule="evenodd"/><path d="M68.276,97.191c-.467.3-.771.65-1.015.609-.274-.041-.5-.426-.731-.66.274-.244.518-.629.832-.69C67.545,96.409,67.849,96.826,68.276,97.191Z" transform="translate(0.992 1.438)" fill="#24b8eb" fill-rule="evenodd"/><path d="M81.04,97.11c.457-.325.781-.71.984-.66.294.081.507.487.751.751-.254.213-.507.589-.771.6S81.476,97.445,81.04,97.11Z" transform="translate(1.209 1.438)" fill="#24b8eb" fill-rule="evenodd"/><path d="M97.836,97.171c-.467.315-.761.66-1,.629-.274-.03-.5-.416-.751-.65.264-.254.507-.629.822-.71C97.095,96.4,97.41,96.816,97.836,97.171Z" transform="translate(1.433 1.438)" fill="#24b8eb" fill-rule="evenodd"/><path d="M1.746,104.581c-.467.3-.771.65-1.015.619-.274-.041-.5-.426-.731-.67.274-.244.518-.629.832-.69C1.025,103.8,1.319,104.226,1.746,104.581Z" transform="translate(0 1.549)" fill="#24b8eb" fill-rule="evenodd"/><path d="M16.536,104.581c-.467.3-.771.65-1.015.619-.274-.041-.5-.426-.731-.67.274-.244.518-.629.832-.69C15.8,103.8,16.109,104.226,16.536,104.581Z" transform="translate(0.221 1.549)" fill="#24b8eb" fill-rule="evenodd"/><path d="M31.316,104.571c-.467.315-.8.7-.995.629-.3-.112-.507-.507-.761-.781.274-.213.538-.579.812-.579C30.626,103.83,30.879,104.216,31.316,104.571Z" transform="translate(0.441 1.549)" fill="#24b8eb" fill-rule="evenodd"/><path d="M45.141,105.556c-.365-.467-.792-.781-.741-.974.081-.3.477-.528.741-.792.223.244.609.477.629.741S45.445,105.079,45.141,105.556Z" transform="translate(0.662 1.548)" fill="#24b8eb" fill-rule="evenodd"/><path d="M60.886,104.571c-.467.315-.8.7-.995.629-.3-.112-.507-.507-.761-.781.264-.213.528-.568.812-.579C60.186,103.83,60.449,104.216,60.886,104.571Z" transform="translate(0.882 1.549)" fill="#24b8eb" fill-rule="evenodd"/><path d="M74.65,105.556c-.345-.477-.751-.812-.69-1,.091-.3.5-.507.771-.761.213.254.589.507.6.771S74.985,105.089,74.65,105.556Z" transform="translate(1.103 1.548)" fill="#24b8eb" fill-rule="evenodd"/><path d="M90.446,104.571c-.467.3-.761.66-1,.629-.274-.041-.5-.426-.741-.66.274-.254.507-.629.822-.7C89.715,103.8,90.019,104.216,90.446,104.571Z" transform="translate(1.323 1.549)" fill="#24b8eb" fill-rule="evenodd"/><path d="M105.226,104.49c-.436.355-.71.731-.954.721-.274-.01-.538-.386-.8-.6.254-.274.467-.67.771-.761C104.444,103.779,104.769,104.165,105.226,104.49Z" transform="translate(1.543 1.549)" fill="#24b8eb" fill-rule="evenodd"/><path d="M9.146,112c-.477.294-.781.629-1.025.589-.274-.041-.487-.436-.721-.68.274-.244.528-.619.842-.68C8.425,111.189,8.719,111.626,9.146,112Z" transform="translate(0.11 1.659)" fill="#24b8eb" fill-rule="evenodd"/><path d="M23.926,111.951c-.467.315-.751.67-.995.639-.274-.03-.507-.416-.751-.639.264-.254.5-.639.812-.71C23.175,111.179,23.489,111.6,23.926,111.951Z" transform="translate(0.331 1.659)" fill="#24b8eb" fill-rule="evenodd"/><path d="M38.706,111.89c-.447.345-.721.71-.964.7-.274-.02-.528-.386-.792-.609.254-.264.467-.66.781-.751C37.924,111.169,38.249,111.565,38.706,111.89Z" transform="translate(0.551 1.659)" fill="#24b8eb" fill-rule="evenodd"/><path d="M53.5,111.971c-.467.3-.761.66-1,.619-.274-.041-.5-.426-.741-.66.274-.254.507-.629.822-.7C52.755,111.189,53.059,111.606,53.5,111.971Z" transform="translate(0.772 1.659)" fill="#24b8eb" fill-rule="evenodd"/><path d="M68.276,111.839c-.426.365-.731.792-.924.751-.315-.071-.558-.447-.832-.7.244-.233.467-.619.741-.66C67.5,111.189,67.809,111.535,68.276,111.839Z" transform="translate(0.992 1.659)" fill="#24b8eb" fill-rule="evenodd"/><path d="M82.04,112.946c-.345-.477-.751-.812-.69-1,.091-.3.5-.507.771-.761.213.254.589.507.6.771S82.385,112.479,82.04,112.946Z" transform="translate(1.213 1.658)" fill="#24b8eb" fill-rule="evenodd"/><path d="M97.836,111.859c-.436.355-.7.741-.944.731-.274-.01-.538-.376-.812-.589.254-.274.457-.67.761-.771C97.044,111.169,97.379,111.555,97.836,111.859Z" transform="translate(1.433 1.659)" fill="#24b8eb" fill-rule="evenodd"/></g><g transform="translate(-357.296 -5474.071)"><g transform="translate(1542.236 5618.325)"><path d="M2016.564,5860.539q-.7,9.856-1.81,19.773c-5.74,50.036-20.7,100.181-56.882,138.938-4.533,4.842-9.407,9.538-15.348,12.84-15.634,8.7-38.8,4.17-56.372,4.17H1723.533c-20.237,0-49.147,5.81-65.756-6.188a203.965,203.965,0,0,1-33.9-30.743,196.782,196.782,0,0,1-12.842-16.315c-20.594-29.142-32.693-62.917-38.278-99.021-5.957-38.556-4.642-77.491,11.457-113.943,10.947-24.755,28.368-53.757,55.7-65.508,15.712-6.761,33.776-8.594,50.9-8.8,22.094-.271,44.73-1.479,63.791-12.834,21.537-12.819,37.3-32.391,58.562-45.774,21.428-13.484,46.416-21.614,72.494-17.924,36.274,5.152,64.982,31.509,84.647,60.186,30.209,44,45.078,95.988,46.849,148.229A320.533,320.533,0,0,1,2016.564,5860.539Z" transform="translate(-1569.498 -5618.325)" fill="#d3f1fb"/></g><path d="M2009.773,6311.48c-36.112-1.765-158.959,1.225-196.32,2.391s-80.73-1.538-103.258-5.515-152.745.339-146.836,11.032,58.018,4.782,117.11,9.08,191.991-.537,221.969,0,57.467-1.074,96.1-3.223S2030.705,6312.5,2009.773,6311.48Z" transform="translate(-24.582 -291.367)" fill="#f4f4f4"/><g transform="translate(1851.889 5688.736)"><path d="M2189.651,5786.051a42.35,42.35,0,0,0,.264-4.694c0-.838-.028-1.669-.076-2.495l-7.757-2.509a34.057,34.057,0,0,0-2.746-9.293l5.143-6.33a41.878,41.878,0,0,0-4.074-5.923l-7.758,2.531a34.46,34.46,0,0,0-7.68-5.9l.441-8.15a41.529,41.529,0,0,0-6.772-2.4l-4.79,6.611a34.495,34.495,0,0,0-9.684-.254l-4.435-6.855a41.474,41.474,0,0,0-6.89,2.036l.01,8.162a34.411,34.411,0,0,0-7.981,5.49l-7.611-2.936a41.944,41.944,0,0,0-4.383,5.7l4.8,6.593a34.106,34.106,0,0,0-3.238,9.134l-7.877,2.1a42.11,42.11,0,0,0-.264,4.695c0,.838.027,1.668.076,2.494l7.757,2.51a34.1,34.1,0,0,0,2.747,9.293l-5.143,6.329a41.91,41.91,0,0,0,4.074,5.922l7.758-2.531a34.454,34.454,0,0,0,7.68,5.9l-.442,8.151a41.412,41.412,0,0,0,6.772,2.4l4.79-6.61a34.706,34.706,0,0,0,5.741.48,34.351,34.351,0,0,0,3.943-.228l4.436,6.856a41.609,41.609,0,0,0,6.89-2.036l-.01-8.163a34.4,34.4,0,0,0,7.982-5.49l7.61,2.937a41.952,41.952,0,0,0,4.383-5.7l-4.8-6.593a34.1,34.1,0,0,0,3.238-9.135Zm-41.546,11.7a16.4,16.4,0,1,1,16.4-16.4A16.4,16.4,0,0,1,2148.1,5797.755Z" transform="translate(-2106.295 -5740.387)" fill="#bdeaf9"/><g transform="translate(63.332 30.901)"><path d="M2216.927,5822.958a.844.844,0,0,1-.649-1.384,27.512,27.512,0,0,0,4.847-26.5.844.844,0,1,1,1.6-.55,29.2,29.2,0,0,1-5.145,28.128A.842.842,0,0,1,2216.927,5822.958Z" transform="translate(-2216.083 -5793.956)" fill="#fff"/></g><g transform="translate(51.211 13.505)"><path d="M2205.662,5771.492a.843.843,0,0,1-.579-.23,27.3,27.3,0,0,0-9.455-5.826.845.845,0,1,1,.575-1.589,29.005,29.005,0,0,1,10.038,6.184.845.845,0,0,1-.579,1.46Z" transform="translate(-2195.071 -5763.797)" fill="#fff"/></g><g transform="translate(34.604 11.816)"><path d="M2167.128,5763.419a.845.845,0,0,1-.207-1.665,29.294,29.294,0,0,1,7.157-.885.845.845,0,0,1,0,1.689,27.606,27.606,0,0,0-6.744.834A.793.793,0,0,1,2167.128,5763.419Z" transform="translate(-2166.283 -5760.869)" fill="#fff"/></g></g><rect width="261.307" height="156.954" transform="translate(1607.104 5688.855)" fill="#24b8eb"/><rect width="245.84" height="144.087" transform="translate(1619.835 5692.686)" fill="#fff"/><g transform="translate(1767.031 5759.508)"><path d="M2059.284,5870.715c11.715-11.152,31.739-10.9,31.316,6.083s.98,18.578,5.8,27.486c16.728,30.91-19.939,29.091-35.231,30.1s-14.024-27.8-11.321-43.764S2055.856,5873.978,2059.284,5870.715Z" transform="translate(-1996.848 -5863.071)" fill="#1a2e35"/><path d="M2065.786,6045.111c-3.756,31.543-10.581,54.859-11.341,69.813s-3.8,73.831-3.8,73.831,8.363-.585,9.124-1.852,15.713-34.47,14.953-55,14.935-51.743,14.935-51.743l-3.784-30.626Z" transform="translate(-1997.888 -5940.101)" fill="#4476bd"/><path d="M2075.226,6068.916l-5.875,2.458c-1.6,10-3.367,19-4.923,26.971,9.348,6.043,14.176,26.177,16.246,38.486,1.054-13.773,7.553-30.417,11.585-39.621Z" transform="translate(-2003.721 -5950.174)" fill="#3e6bab"/><path d="M2111.779,6039.6s12.66,16.147,12.263,34.468c-.6,27.889-3.646,35.852,1.646,65.093,2.067,11.421-4.562,48.782-4.562,48.782s-5.663.444-8.7-1.07c.254-2.745-3.659-47.4-11.281-67.927-3.691-9.94-8.878-37.781-11.666-53.748s-3.295-19.262-2.281-19.262S2111.779,6039.6,2111.779,6039.6Z" transform="translate(-2013.151 -5937.769)" fill="#4476bd"/><path d="M1998.469,5950.286s.563-8.356-.338-10.937-8.674-4.834-8.674-4.834-.337,11.94.451,13.4,5.407,5.632,5.407,5.632Z" transform="translate(-1971.967 -5893.303)" fill="#fcbb8c"/><path d="M2044.811,5951.3c-17.8,19.155-23.605,27.216-24.957,27.216-4.224-7.456-18.256-23.228-18.256-23.228l-5.983,3.847s13.826,36.121,22.612,36.495,26.646-12.457,26.873-13.93S2044.811,5951.3,2044.811,5951.3Z" transform="translate(-1974.604 -5900.405)" fill="#a2dff2"/><path d="M2048.721,5993.755c8.706-3.543,18.681-10.958,18.85-12.057.227-1.474-.289-30.4-.289-30.4-3.88,4.176-7.267,7.88-10.206,11.12C2053.888,5974.292,2054.1,5987.219,2048.721,5993.755Z" transform="translate(-1997.075 -5900.405)" fill="#96cfe0"/><path d="M2091.928,5929.437s17.03,8.537,20.747,23.648-7.282,33.778-8.634,43.741-32.441,11.716-32.441,1.051c0-10.224-7.789-31.926-7.35-37.453,1.031-12.97,19.991-28.859,19.991-28.859Z" transform="translate(-2003.639 -5891.153)" fill="#a2dff2"/><path d="M2093.5,5895.5l7.312,22.546s-7.807,6.025-21.167,20.517c.519-9.644,8.6-20.157,8.6-20.157l-5.53-21.29Z" transform="translate(-2010.16 -5876.794)" fill="#fcbb8c"/><path d="M2099.16,5906.018l-3.41-10.516-10.788,1.616,5.53,21.29s-.539.861-1.335,2.214A25.987,25.987,0,0,0,2099.16,5906.018Z" transform="translate(-2012.41 -5876.794)" fill="#fcbb8c"/><path d="M2081.607,5892.608c-1.972,7.174-9.608,11.124-15.034,9.633s-6.587-7.859-4.615-15.033,7.969-11.782,13.4-10.291S2083.579,5885.434,2081.607,5892.608Z" transform="translate(-2002.296 -5868.811)" fill="#fcbb8c"/><path d="M2069.937,6019.318c2.367,15-6.423,47.1-6.423,47.1s5.242,1.19,20.957-.33,22.643-17.2,25.008-17.642,3.581,14.6,4.747,15.784,1.344-18.984-1.706-26.916c-5.407-14.057-4.349-20.02-2.328-28.537C2113.785,5993.634,2069.937,6019.318,2069.937,6019.318Z" transform="translate(-2003.334 -5922.704)" fill="#a2dff2"/><path d="M2038.779,6281.322c1.415,5.75-1.378,10.311-5.119,13.636-3.041,2.7-12.391,3.853-11.94,5.2s11.49,1.78,15.207,1.217,4.731-2.365,9.358-2.363c3.033,0,3.6-2.466,2.245-5.515s-1.825-4.735-.6-7.468S2038.779,6281.322,2038.779,6281.322Z" transform="translate(-1985.643 -6040.052)" fill="#4476bd"/><path d="M2139.492,6278.252c-.226,5.971-.919,10.418.545,13.186,5.656,4.73,10.358,10.105,8.561,10.477-8.561,1.768-11.828-3.363-16.672-4.822-5.944-1.789.563-9.259-1.766-18.84-1.3-5.327,8.975-4.049,8.975-4.049Z" transform="translate(-2031.191 -6036.983)" fill="#4476bd"/><path d="M2121.319,6017.352a28.19,28.19,0,0,0-1.278-4.894c-5.407-14.058-4.348-20.02-2.328-28.537a6.7,6.7,0,0,0,.205-1.778c.456-1.519.881-3.058,1.254-4.607l-1.835-16.565-13.232-15.715c-9.917,14.531-3.224,32.612-4.712,42.581s-18.1,22.681-18.1,22.681l.541,3.537a8.98,8.98,0,0,0,10.1,7.546c6.848-.95,15.832-2.859,19.83-6.569C2115.631,6011.442,2119.056,6014.22,2121.319,6017.352Z" transform="translate(-2010.856 -5897.848)" fill="#96cfe0"/><path d="M2078.833,6057.4s-7.336,2.051-8.213,2.51-1.362,2.883-1.362,2.883-4.2,3.647-2.59,4.938,4.481,4.56,8.279,3.039c2.331-.934,4.138-9.5,5.666-9.567S2078.833,6057.4,2078.833,6057.4Z" transform="translate(-2004.514 -5945.301)" fill="#fcbb8c"/><path d="M2107.5,5941.933c7.852.222,14.969,14.362,17.45,26.629s5.091,29.708,5.091,29.708-13.011,10.269-25.866,13.27c-11.214,2.619-16.94,3.642-16.94,3.642l-2.275-6.4,26.833-15.76s-9.866-18.587-10.848-32.612S2101.536,5941.764,2107.5,5941.933Z" transform="translate(-2012.41 -5896.44)" fill="#a2dff2"/><rect width="19.96" height="12.677" transform="translate(0 42.326) rotate(-11.346)" fill="#f5dc95"/><path d="M1993.809,5951.19c.271-5.141-2.277-12.152-3.741-12.142s.451,4.6-.338,7.636C1989.3,5948.333,1993.809,5951.19,1993.809,5951.19Z" transform="translate(-1972.015 -5895.221)" fill="#fcbb8c"/><path d="M2065.11,5877.752c.435,14.081,16.881,13,21.387,12.133s-5.486,29.707,3.1,31.471c6.3,1.3,4.883-8.563,11.884-7.9,3.1.292,6.211,5.081,6.211,5.081a9.56,9.56,0,0,0-2.832-5.081c-2.365-2.13-8.567-15.2-10.2-24.547s-12.67-15.4-15.937-15.584-11.265,3.531-11.265,3.531Z" transform="translate(-2004.01 -5867.405)" fill="#1a2e35"/><g transform="translate(80.561 22.068)"><path d="M2103.725,5936.4a3.256,3.256,0,0,1-.678-.072c-2.747-.584-4.079-3.472-4.193-9.085-.1-4.812.7-10.988,1.541-17.526.34-2.642.692-5.374.982-8.018a.412.412,0,1,1,.819.089c-.291,2.653-.643,5.388-.984,8.034-1.63,12.651-3.169,24.6,2.006,25.7a2.31,2.31,0,0,0,.481.05c2.972,0,5.649-5.792,7.209-11.434a.412.412,0,1,1,.793.22C2110.672,5928.08,2107.9,5936.4,2103.725,5936.4Z" transform="translate(-2098.846 -5901.328)" fill="#1a2e35"/></g><g transform="translate(79.408 22.068)"><path d="M2101.779,5939.671a3.246,3.246,0,0,1-2.433-1.082c-5.606-5.926-.063-35.663.176-36.925a.412.412,0,1,1,.809.153c-.058.306-5.706,30.583-.387,36.207a2.456,2.456,0,0,0,2.238.8c2.912-.384,4.593-4.334,6.075-7.819,1.439-3.382,2.791-6.574,5.2-6.49a.411.411,0,0,1,.4.426.407.407,0,0,1-.425.4h-.06c-1.807,0-3.045,2.91-4.356,5.99-1.569,3.688-3.347,7.868-6.724,8.313A3.826,3.826,0,0,1,2101.779,5939.671Z" transform="translate(-2096.848 -5901.328)" fill="#1a2e35"/></g><path d="M2099.7,5903.34c-1.159,1.493-2.975,2.024-4.056,1.185s-1.019-2.73.141-4.224,2.975-2.024,4.057-1.185S2100.861,5901.846,2099.7,5903.34Z" transform="translate(-2016.605 -5878.155)" fill="#fcbb8c"/></g><g transform="translate(1661.591 5823.369)"><path d="M1859.969,5990.4c4.016,8.029.692,17.275-7.205,20.542-7.949,3.289-16.641,1.421-20.656-6.608s-1.033-17.656,6.66-21.5S1855.954,5982.375,1859.969,5990.4Z" transform="translate(-1799.22 -5976.938)" fill="#1a2e35"/><g transform="translate(30.25 12.992)"><path d="M1837.7,6018.279c-.887,0-2.634-.312-4.854-2.284a12.406,12.406,0,0,1-3.683-6.979,24.267,24.267,0,0,1,1.352-12.439.412.412,0,0,1,.778.269,23.466,23.466,0,0,0-1.321,12.015,11.585,11.585,0,0,0,3.421,6.519c2.816,2.5,4.7,2.044,4.723,2.039a.412.412,0,0,1,.221.793A2.557,2.557,0,0,1,1837.7,6018.279Z" transform="translate(-1828.845 -5996.301)" fill="#1a2e35"/></g><g transform="translate(0 41.895)"><path d="M1863.749,6051.284c4.57,1.024,10.339,13.722,13.164,21.857,2.85,8.207,7.68,18.385,10.843,21.548s23.944,10.5,23.944,10.5-51.349.1-50.3,0S1863.749,6051.284,1863.749,6051.284Z" transform="translate(-1812.366 -6048.47)" fill="#a8ceff"/><path d="M1892.518,6101.1c-2.812-.4-12.952.9-8.635-.9s3.714-4.117,3.714-4.117-6.124,5.121-7.229.643c-.952-3.86-1.317-17.492-4.931-31.155-2.986-6.773-6.894-13.551-10.182-14.288,0,0-.115,4.811-.306,11.555,1.261,14.926,3.4,36.856,3.944,42.384,6.806.01,18.2,0,27.726-.013l6.338-.3S1895.329,6101.505,1892.518,6101.1Z" transform="translate(-1813.874 -6048.47)" fill="#93bbf0"/><path d="M1822.794,6046.405s-14.536,8.122-17.925,9.85,9.493,52.428,12.358,54.6,28.087.374,30.958-2.363-2.2-11.139.282-27.961-7.58-31.343-8.873-31.312-9.731-2.813-9.731-2.813Z" transform="translate(-1788.212 -6046.405)" fill="#a8ceff"/><path d="M1817.261,6118.624c2.865,2.173,20.913,2.222,28.6-.169.867-.27,4.8-1.839,4.9-3.313-.928-.174-4.609.268-6.1-.076-5.2-1.194-8.057-7.63-8.057-7.63s-2.862-1.029-9.262-3.74-3.765-10.918-3.916-14.533-6.326-15.437-17.922-24.4l-1.064.476C1803.6,6073.48,1814.611,6116.613,1817.261,6118.624Z" transform="translate(-1788.245 -6054.173)" fill="#93bbf0"/><g transform="translate(56.6 24.526)"><path d="M1962.464,6089.174h-35l-15.941,33.924h38.554l14.431-30.708A2.257,2.257,0,0,0,1962.464,6089.174Z" transform="translate(-1890.179 -6089.028)" fill="#66cdf1"/><path d="M1897.951,6123.473H1876.89a2.365,2.365,0,1,1,0-4.731h19.553l13.219-28.451a2.365,2.365,0,0,1,4.29,1.994L1900.1,6122.1A2.365,2.365,0,0,1,1897.951,6123.473Z" transform="translate(-1874.524 -6088.922)" fill="#24b8eb"/></g><path d="M1849.952,6136.255c9.137,1.707,11.384,3.805,16.364,4.608,5.646.91,4.975,2.157.781,2.157s-14.731.163-18.348-.641S1849.952,6136.255,1849.952,6136.255Z" transform="translate(-1806.448 -6084.424)" fill="#fcbb8c"/><path d="M1791.922,6064.482c-7,22.391-16.929,47.795-15.348,47.795s41.79,1.625,43.371.271,1.13-6.549.9-7.227-22.86-4.694-22.86-4.694,2.981-5.809,4.11-17.161S1793.25,6060.237,1791.922,6064.482Z" transform="translate(-1776.406 -6053.682)" fill="#a8ceff"/></g><path d="M1841.448,6012.68l-5.641,20.613s9.532,14.877,12.152,13.556-1.464-12.092-1.464-13.556,4.085-16.565,4.085-16.565Z" transform="translate(-1801.542 -5990.239)" fill="#fcbb8c"/><path d="M1849.459,6034.343a5.523,5.523,0,0,1-.2-1.05c0-1.463,4.085-16.565,4.085-16.565l-9.132-4.047-1.867,6.82A35.554,35.554,0,0,0,1849.459,6034.343Z" transform="translate(-1804.31 -5990.239)" fill="#e5a980"/><path d="M1867.285,6005.346c1.075,5.978.367,13.916-4.941,15.935s-11.7-1.843-14.281-8.625-.367-13.916,4.941-15.935S1866,5998.205,1867.285,6005.346Z" transform="translate(-1806.272 -5983.248)" fill="#fcbb8c"/><path d="M1846.714,6015.778c.744,2.089.1,4.228-1.443,4.777s-3.394-.7-4.137-2.791-.1-4.228,1.443-4.777S1845.97,6013.688,1846.714,6015.778Z" transform="translate(-1803.665 -5990.314)" fill="#fcbb8c"/><path d="M1864.463,5995.6c-1.807,14.027-18.849,12.22-18.849,12.22s-3.515-4.621-5.1-2.2,2.193-14.221,11.972-14.745C1855.7,5990.708,1864.463,5995.6,1864.463,5995.6Z" transform="translate(-1803.387 -5981.013)" fill="#1a2e35"/><ellipse cx="9.23" cy="8.66" rx="9.23" ry="8.66" transform="translate(25.294 0)" fill="#1a2e35"/></g><g transform="translate(1677.731 5920.484)"><g transform="translate(0 3.927)"><path d="M1804.385,6278.342h2.11l13.629-63.145h-4.643Z" transform="translate(-1804.385 -6176.975)" fill="#2e5b9a"/><path d="M1904.956,6276.705h-2.11l-15.861-65.377h4.643Z" transform="translate(-1839.337 -6175.338)" fill="#2e5b9a"/><g transform="translate(1.191)"><path d="M1829.34,6189.525c-8.455,0-13.811-1.519-17.23-4.848-4.237-4.128-5.114-10.522-5.126-18.853-.01-6.556-.166-10.826-.521-14.278a2.366,2.366,0,1,1,4.706-.483c.372,3.617.535,8.031.546,14.754.013,8.443,1.084,12.925,3.7,15.471,2.681,2.61,7.528,3.688,15.711,3.484a93.038,93.038,0,0,0,17.714-2.189c5.749-1.169,9.9-2.014,14.828.341a2.365,2.365,0,1,1-2.04,4.268c-3.5-1.67-6.463-1.067-11.847.027a97.148,97.148,0,0,1-18.539,2.283Q1830.266,6189.526,1829.34,6189.525Z" transform="translate(-1806.45 -6148.938)" fill="#2e5b9a"/></g></g><path d="M1812.832,6148.455l12.942.538-3.445,35.733s-9.647-6.159-9.5-12.786S1812.832,6148.455,1812.832,6148.455Z" transform="translate(-1807.959 -6144.807)" fill="#2e5b9a"/><path d="M1922.26,6153.723c10.943-1.661,14.662-1.138,21.36,11.327s15.612,34.906,20.739,37.8c7.72,4.365,10.278,15.067,13.448,14.586s5.21.919,1.761,3.787-9.019,5.307-10.924,4.8-3.382-8.739-8.357-11.411-3.48-4.867-3.154-7.231-14.522-13.246-25.715-26.781c-6.839-8.27-10.362-13.729-10.883-18.676A12.974,12.974,0,0,1,1922.26,6153.723Z" transform="translate(-1853.5 -6146.747)" fill="#fcbb8c"/><path d="M1949.39,6198.919c-2.542-6.447-5.09-17.089-7.487-26.846-3.407-13.875-6.98-17.169-9.242-18.649-2.736-.686-5.978-.372-10.4.3a12.973,12.973,0,0,0-1.726,8.2c.522,4.947,4.044,10.406,10.883,18.676a196.3,196.3,0,0,0,17.971,18.316Z" transform="translate(-1853.5 -6146.748)" fill="#efb086"/><path d="M1921.582,6164.693s-2.913,21.969-5.623,24.2c-1.939,1.6-3.313,1.7-4.668-4.849s2.108-31.007,2.108-31.007Z" transform="translate(-1849.489 -6146.748)" fill="#2e5b9a"/><path d="M1905.573,6179.44l-26.948,4.528,15.213-21.815,11.578-2.357,6.943,1.6Z" transform="translate(-1835.8 -6149.606)" fill="#efb086"/><path d="M1983.633,6247.248c-.873,3.521-.768,6.124.75,7.427s7.253,11,7.253,11l1.787-.271-4.137-8.867Z" transform="translate(-1880 -6186.611)" fill="#2e5b9a"/><path d="M1995.207,6265.77c1.905.509,7.475-1.933,10.925-4.8s1.409-4.268-1.761-3.787a1.334,1.334,0,0,1-.531-.026c-1.584,3.537-6.791,6.189-8.471,2.454-1.666-3.7-8.8-11.071-11.675-12.648a.647.647,0,0,1,0,.164c-.327,2.364-1.822,4.56,3.154,7.231S1993.3,6265.261,1995.207,6265.77Z" transform="translate(-1880.063 -6186.49)" fill="#2e5b9a"/><path d="M1824.859,6155.062c-9.561,17.157-3.03,28.063,8.59,29.174s29.965-1.011,40.657-9.9,19.471-18.281,18.245-19.683S1824.859,6155.062,1824.859,6155.062Z" transform="translate(-1811.1 -6147.206)" fill="#efb086"/><path d="M1920.667,6170.265c1.958-5.873,4.215-10.379,8.584-10.461,4.594-.086,7.42,2.3,7.617,9.82.234,8.95.549,38.592.136,51.771-.313,9.977,2.594,13.171,2.349,23.572-.185,7.833,8.166,3.876,4.941,7.939-2.219,2.793-8.822,1.878-12.878,1.363-3.614-.459,1.87-11.29-3.131-14.186-4.292-2.485-4.376-6.52-1.665-9.574s.3-12.09-1.506-18.416-4.61-13.168-6.451-28.125C1918.137,6179.707,1919.472,6173.853,1920.667,6170.265Z" transform="translate(-1852.691 -6149.608)" fill="#fcbb8c"/><path d="M1946.013,6301.425a18.9,18.9,0,0,1-4.575.936c-3.012.1-3.916-3.212-4.117-7.713-.175-3.93-3.03-10.119-5.957-12.628-.053.071-.109.141-.168.206-2.711,3.054-2.626,7.088,1.665,9.574,5,2.9-.483,13.727,3.131,14.186,4.056.516,10.66,1.43,12.878-1.364C1950.967,6301.982,1948.365,6301.772,1946.013,6301.425Z" transform="translate(-1857.269 -6201.325)" fill="#2e5b9a"/><path d="M1930.771,6280.438s-4.393,4.587-3.991,6.495,1.756,6.727,1.982,10.442.427,7.979.427,7.979,1.581,0,1.707-.448,1-15.1,1-15.1Z" transform="translate(-1856.165 -6200.655)" fill="#2e5b9a"/><path d="M1818.692,6153.04s-5.671,24.066,1.494,30.737,36.917.67,43.925.271c4.744-.271,9.338,5.52,9.338,5.52s-3.313-13.428-1.055-24.271,5.9-11.572,5.9-11.572l-4.85-.684Z" transform="translate(-1809.538 -6146.748)" fill="url(#a)"/><path d="M1817.126,6142.131c2.425,5.145-2.61,14.03-.846,16.591s11.868.358,18.488-4.971,19.15-6.5,19.15-6.5Z" transform="translate(-1809.257 -6142.131)" fill="#a8ceff"/><path d="M1830.523,6213.144c20.031.753,41.115.4,41.115-2.588s-.9-5.093-16.416-3.888-26.055,2.861-30.723,1.808S1830.523,6213.144,1830.523,6213.144Z" transform="translate(-1812.397 -6169.293)" fill="#2e5b9a"/></g><path d="M2.727,0H283.855a2.726,2.726,0,0,1,2.726,2.726v0a2.726,2.726,0,0,1-2.726,2.726H2.727A2.727,2.727,0,0,1,0,2.727v0A2.727,2.727,0,0,1,2.727,0Z" transform="translate(1625.061 5923.86)" fill="#66cdf1"/><g transform="translate(1823.118 5830.688)"><path d="M2256.771,6013.964c1.941,6.841-2.8,13.891-8.02,15.372s-8.946-3.167-10.886-10.009.718-13.587,5.939-15.068S2254.831,6007.123,2256.771,6013.964Z" transform="translate(-2132.928 -5993.871)" fill="#fcbb8c"/><path d="M2215.926,6251.105s13.38,20.782,15.188,21.685,6.325,1.129,4.631,4.518-2.373,16.717-3.953,17.394-15.135,2.26-13.1,0,3.284-1.129,4.31-5.2,2.467-11.746.547-13.327-13.667-15.812-13.667-15.812Z" transform="translate(-2121.355 -6098.447)" fill="#fcbb8c"/><path d="M2083.645,6266.577s-16.265,26.808-19.277,29.217-12.952,6.024-4.819,6.626,12.048-2.71,17.168-4.217,11.446-2.41,9.037-6.325-1.409-12.464,3.786-17.886S2083.645,6266.577,2083.645,6266.577Z" transform="translate(-2056.418 -6104.993)" fill="#fcbb8c"/><path d="M2181.553,6158.8s-40.265-1.053-56.229,12.049c-9.337,14.156-31.926,55.926-33.683,60.529,1.205,1.206,7.983,3.379,10.994,3.079,8.886-10.6,20.631-19.755,25.3-28.066,5.756-10.24,7.53-15.362,16.867-16.264s30.422-3.917,36.748-3.917S2181.553,6158.8,2181.553,6158.8Z" transform="translate(-2071.323 -6059.379)" fill="url(#a)"/><path d="M2295.725,6282.52h-2.111l-15.135-63.146h4.644Z" transform="translate(-2150.382 -6085.021)" fill="#2e5b9a"/><path d="M2198.772,6280.882h2.11l17.367-65.377h-4.644Z" transform="translate(-2116.655 -6083.382)" fill="#2e5b9a"/><path d="M2229.2,6154.034l-23.409,4.041s-31.108.286-45.328,2.934c-12.937,2.41-14.843,17.11,0,37.351,8.432,11.5,15.561,20.67,30.14,31.011,3.709-2.723,5.128-3.752,6.152-10.3-1.055-1.447-3.786-10.5-4.634-12.274-8.063-16.856-18.827-22.987-18.976-24.645,1.807-2.936,47.869,15.308,57.028,4.576C2238.915,6176.477,2229.2,6154.034,2229.2,6154.034Z" transform="translate(-2096.031 -6057.371)" fill="url(#a)"/><path d="M2267.046,6061.966a24.5,24.5,0,0,0-18.317,4.558c-5.132,5.231-10.938,13.858-10.583,28.087.452,18.072-2.8,19.232.592,24.2,14.132,5.836,38.3,30.91,32.611,4.028-4.122-19.464,9.039-33.972-1.578-55.563C2268.908,6065.52,2267.828,6063.816,2267.046,6061.966Z" transform="translate(-2132.906 -6018.3)" fill="#e85b6c"/><path d="M2238.143,6104.723c-.274,9.422-1.6,12.2-.588,15.15,5.762.588,16.3,2.894,18.934,6.581,3.012,4.216,6.024,4.819,4.618,1.707s-5.12-7.53.6-22.691,8.434-25.4,2.811-35.944Z" transform="translate(-2132.906 -6021.612)" fill="#d54a41"/><path d="M2275.52,6048.162a73.515,73.515,0,0,1-4.729-19.085l-9.939,2.937s5.647,12.649.226,17.167a52.086,52.086,0,0,0-3.875,3.539A24.5,24.5,0,0,1,2275.52,6048.162Z" transform="translate(-2141.379 -6004.496)" fill="#fcbb8c"/><path d="M2273.779,6031.86c-.588-.524-1.325-1.178-2.1-1.862l-8.107,2.4-.017.044a33.12,33.12,0,0,1,2.533,9.9c2.415-1.465,5.061-3.855,8.085-8.03C2274.009,6033.383,2273.879,6032.556,2273.779,6031.86Z" transform="translate(-2144.068 -6004.886)" fill="#e38540"/><path d="M2232.549,6066.853c-10.238,3.58-9.1,14.365-18.523,30.27-4.876,8.23-9.4,8.108-9.4,8.108a217.9,217.9,0,0,1-25.267-1.6c-8.661-1.059-9.21,1.52-3.187,3.673,12.149,4.344,24.756,9.019,34.921,7.889s27.552-27.065,28.448-33.817C2240.777,6072.04,2237.7,6065.05,2232.549,6066.853Z" transform="translate(-2105.396 -6020.361)" fill="#f09959"/><g transform="translate(86.159 69.039)"><path d="M2241.5,6173.829q-.952,0-1.953-.025a97.112,97.112,0,0,1-18.539-2.283c-5.384-1.094-8.35-1.7-11.846-.026a2.366,2.366,0,0,1-2.04-4.269c4.926-2.354,9.08-1.51,14.828-.341a92.91,92.91,0,0,0,17.714,2.19c8.9.22,14.344-1.115,17.125-4.2,2.484-2.754,3.216-7.346,2.3-14.451-.31-2.406-.619-4.406-.892-6.171-.766-4.953-1.272-8.225-.646-13.268.582-4.7,2.143-10.976,5.756-23.146a2.365,2.365,0,1,1,4.535,1.346c-6.76,22.765-6.416,24.988-4.969,34.344.277,1.793.592,3.826.908,6.292,1.1,8.576,0,14.366-3.481,18.222C2256.721,6172.018,2250.878,6173.829,2241.5,6173.829Z" transform="translate(-2205.778 -6106.147)" fill="#2e5b9a"/></g><path d="M2084.75,6305.745c-10.792,5.278-16.6,8.3-20.061,8.014-.817-.067-1.494-.151-2.062-.24-3.848,2.275-9.992,4.963-3.079,5.475,8.133.6,12.048-2.71,17.168-4.217s11.446-2.409,9.036-6.325A8.253,8.253,0,0,1,2084.75,6305.745Z" transform="translate(-2056.418 -6121.567)" fill="#1a2e35"/><path d="M2238.6,6289.463c-.264,8.545-1.439,17.012-6.664,18.612a8.809,8.809,0,0,1-3.766.335c-.822,1.017-1.825,1.027-3.171,2.523-2.033,2.259,11.521.677,13.1,0s2.259-14.006,3.953-17.395C2243.448,6290.756,2240.646,6290.107,2238.6,6289.463Z" transform="translate(-2127.665 -6114.677)" fill="#1a2e35"/><g transform="translate(18.857 59.103)"><path d="M2139.615,6123.473h-34.286a2.366,2.366,0,0,1-2.146-1.369l-13.855-29.819a2.366,2.366,0,0,1,4.291-1.994l13.22,28.451h32.777a2.365,2.365,0,1,1,0,4.731Z" transform="translate(-2089.107 -6088.922)" fill="#24b8eb"/></g><path d="M2166.736,6128.631c-6.927-.1-13.8-4.229-17.211-3.627s-14.559,8.334-13.153,8.635,10.241-4.279,10.542-4.349,2.209,3.172,6.928,4.363.033-3.537,14.661.881C2178.014,6137.407,2166.736,6128.631,2166.736,6128.631Z" transform="translate(-2090.198 -6045.063)" fill="#f09959"/><path d="M2269.988,6047.943l1.019,8.2s-8.965.534-13.426,3.043-11.045,9.762-11.045,9.762l5.378-9.26.774-5.924Z" transform="translate(-2136.866 -6012.479)" fill="#f2e5de"/><path d="M2242.27,6065.229c-6.659-1.249-9.739,4.719-14.056,14.458s-11.687,21.567-13.153,23.092-24.7,0-24.7,0-.7,6.727,0,7.53,4.719.7,4.719.7,1.606,1.284,3.112,2.3,14.257,2.923,20.181,2.622,11.346-.8,12.149-1.707,16.968-25.8,17.972-34.74S2245.669,6065.865,2242.27,6065.229Z" transform="translate(-2112.964 -6019.724)" fill="#f2e5de"/><path d="M2238.665,5991c-12.594.6-10.619,19.548-10.619,19.548s3.271,1.01,10.123-.119c-.527-2.033-.3-7.229-.3-7.229a47.394,47.394,0,0,0,1.807,6.776c1.449.665,3.087.076,5.874-.6,1.43,6.02,5.474,8.563,8.242,9.434,3.058.961,6.3,2.109,9.91.3s1.627-20.281-.292-24c-2.881-5.576-7.669-10.568-15.953-7.932A61.573,61.573,0,0,0,2238.665,5991Z" transform="translate(-2128.995 -5986.465)" fill="#1a2e35"/><path d="M2284.5,6032.347l5.149,7.52s-5.706,14.257,10.89,20.716c13,5.059,11.466,13.973,5.593,22.936s3.514,16.792,3.514,16.792,1.432-9.929,14.06-11.8c17.219-2.555,22.095-25.674,9.234-37.233-10.642-9.565-13.88-1.644-21.085-10.228s-20.8-2.786-20.8-2.786l-4.984-7.269Z" transform="translate(-2152.93 -6005.307)" fill="#1a2e35"/><g transform="translate(137.71 29.726)"><path d="M2343.367,6077.479a.418.418,0,0,1-.2-.05.412.412,0,0,1-.163-.559c4.34-7.931.8-17.541-.982-20.144-.188-.275-.367-.553-.556-.848-1.751-2.732-3.93-6.134-15.544-8.225-2.782-.5-5.038-2.157-7.427-3.911-4.955-3.637-10.57-7.758-22.77-2.144a.412.412,0,1,1-.344-.748c12.64-5.817,18.463-1.543,23.6,2.229,2.31,1.7,4.492,3.3,7.086,3.765,11.968,2.154,14.254,5.723,16.091,8.59.186.29.361.563.543.828a22.307,22.307,0,0,1,2.941,8.54,20.045,20.045,0,0,1-1.917,12.464A.41.41,0,0,1,2343.367,6077.479Z" transform="translate(-2295.144 -6037.996)" fill="#1a2e35"/></g><g transform="translate(115.412 16.879)"><path d="M2269.9,6033.547a18.047,18.047,0,0,1-2.667-.215c-4.39-.658-10.279-3.154-10.741-17.181a.413.413,0,0,1,.4-.425.406.406,0,0,1,.424.4c.192,5.806,1.345,10.1,3.427,12.772a9.651,9.651,0,0,0,6.614,3.621c4.1.613,6.816-.147,8.078-2.26a.412.412,0,0,1,.707.422C2275,6032.588,2272.905,6033.547,2269.9,6033.547Z" transform="translate(-2256.489 -6015.726)" fill="#1a2e35"/></g></g><g transform="translate(1527.672 5832.016)"><path d="M1575.49,6063.871c-14.616,8.357-34.947,43.1-30.655,48.771s27.333-9.239,27.333-9.239Z" transform="translate(-1544.251 -6020.547)" fill="#fdd145"/><path d="M1625.812,5991.8c-5.581-.151-3.51-4.3-9.928-2.643-3.375.871-.884,2.259-5.267,1.807s-6.541-.9-7.093,1.958-.82,3.766-2.928,4.217-3.061,4.217,0,6.777,1.573,3.614.895,5.723,1.632,2.26,2.887,4.217-1.155,2.329.652,4.026a6.4,6.4,0,0,0,4.342,1.546l7.608-14.586Z" transform="translate(-1567.266 -5988.768)" fill="#1a2e35"/><path d="M1836.031,6293.035s8.132.226,14.457-2.259,10.617-6.325,9.488-1.808-6.325,12.271-10.843,13.024-6.1,5.726-8.584,5.726-6.1-5.726-12.424-8.586C1822.36,6296.524,1836.031,6293.035,1836.031,6293.035Z" transform="translate(-1663.771 -6114.912)" fill="#1a2e35"/><path d="M1724.314,6292.272a31.278,31.278,0,0,0,9.372,8c6.148,3.388,13.24,5.02,8.843,6.551s-10.828,2.725-17.1.9c-4.4-1.278-9.556-1.545-10.918-3.624s1.6-7.3.37-15.1C1713.892,6282.754,1724.314,6292.272,1724.314,6292.272Z" transform="translate(-1616.141 -6114.911)" fill="#1a2e35"/><path d="M1657.083,6164.812s47.108,17.64,50.9,22.57,53.313,49.85,53.313,53.163-8.434,9.337-8.434,9.337-42.47-26.055-53.012-39.307-36.272-19.643-49.95-20.871S1657.083,6164.812,1657.083,6164.812Z" transform="translate(-1586.99 -6063.259)" fill="#3c3c48"/><path d="M1640.6,6164.418s32.23-1.205,39.157,0,22.124,1.19,12.184,29.242c-7.79,21.986-10.362,49.823-10.362,49.823l-15.49,3.805s.615-50.055,8.006-63.382a248.473,248.473,0,0,0-28.955,6.534c-25.4,7.264-39.329,3.626-39.329,3.626l-3.782-13.253Z" transform="translate(-1568.699 -6062.867)" fill="#3c3c48"/><path d="M1616.459,6020.559l-7.875,23.268,9.949,6.551,5.638-20.1Z" transform="translate(-1571.474 -6002.22)" fill="#fcbb8c"/><path d="M1623.086,6047.206l4.748-16.933-7.712-9.712-2.881,8.51A48.472,48.472,0,0,0,1623.086,6047.206Z" transform="translate(-1575.137 -6002.221)" fill="#e5a980"/><path d="M1642.323,6018.672c.256,7.076-3.221,13.2-8.746,13.745s-10.567-4.726-11.262-11.773,3.221-13.2,8.746-13.747S1641.92,6007.5,1642.323,6018.672Z" transform="translate(-1577.25 -5996.393)" fill="#fcbb8c"/><path d="M1592.246,6059.72c-24.172,16.325-9.138,42.705-3.83,61.982,4.521,16.419,4.374,26.343,5.052,26.343s17.3-2.485,26.79-11.069a145.436,145.436,0,0,0,15.9-16.9s-12.155-2.165-16.128-17.89c-2.017-7.983-1.1-12.317-5.7-24.967S1592.246,6059.72,1592.246,6059.72Z" transform="translate(-1558.917 -6018.791)" fill="#fcc516"/><path d="M1602.028,6055.073l2.589-6.335s8.208,5.422,11.483,7.982a18.474,18.474,0,0,0,5.3,3.163s1.184,9.081.415,8.257C1612.124,6057.757,1602.028,6055.073,1602.028,6055.073Z" transform="translate(-1568.699 -6014.144)" fill="#fcc516"/><g transform="translate(17.628 76.505)"><path d="M1583.457,6282.52h2.111l15.135-63.146h-4.643Z" transform="translate(-1578.468 -6162.854)" fill="#2e5b9a"/><path d="M1678.771,6280.882h-2.11l-17.367-65.377h4.643Z" transform="translate(-1610.558 -6161.216)" fill="#2e5b9a"/><path d="M1603.309,6180.279c-8.455,0-13.811-1.519-17.229-4.848-4.238-4.128-5.114-10.522-5.127-18.853-.027-17.514-1-21.135-5.926-31.829a2.366,2.366,0,0,1,4.3-1.981c5.212,11.3,6.333,15.459,6.36,33.8.013,8.443,1.084,12.925,3.7,15.47,2.681,2.612,7.526,3.687,15.711,3.484a93.006,93.006,0,0,0,17.714-2.189c5.749-1.169,9.9-2.013,14.829.341a2.366,2.366,0,0,1-2.04,4.269c-3.5-1.67-6.462-1.068-11.847.026a97.107,97.107,0,0,1-18.539,2.283Q1604.235,6180.279,1603.309,6180.279Z" transform="translate(-1574.809 -6121.393)" fill="#2e5b9a"/></g><g transform="translate(113.922 57.501)"><path d="M1778.391,6123H1744.1a2.366,2.366,0,1,1,0-4.731h32.777l13.219-28.451a2.365,2.365,0,1,1,4.29,1.994l-13.856,29.819A2.365,2.365,0,0,1,1778.391,6123Z" transform="translate(-1741.739 -6088.447)" fill="#24b8eb"/></g><path d="M1603.579,6084.234s6.025,18.374,13.479,25.979,22.457,10.161,27.155,9.863c-3.745-1.506-10.876-5.79-13.744-17.142-2.017-7.983-1.1-12.318-5.7-24.967-3.413-9.391-13.929-14.482-19.122-16.483,6.482,4.656,14.587,12.323,17.078,18.158C1625.492,6086.116,1603.579,6084.234,1603.579,6084.234Z" transform="translate(-1569.356 -6019.537)" fill="#fdd145"/><path d="M1744.815,6125.706s10.391-4.743,11.52-4.291,12.651,7.408,12.651,8.56-10.165-4.3-10.165-4.3,1.13,3.012.452,4.456-8.492,1.444-15.54.993S1744.815,6125.706,1744.815,6125.706Z" transform="translate(-1627.444 -6044.884)" fill="#fcbb8c"/><path d="M1602.9,6075.522c-9.578,19.632,23.28,39.534,42.773,41.3s42.654-4.609,42.654-4.609l-2.611-6.374s-39.054-5.1-40.042-5.811S1606.408,6068.332,1602.9,6075.522Z" transform="translate(-1568.343 -6025.02)" fill="#fcc516"/><path d="M1620.962,6019.345c.888,2.335.237,4.749-1.454,5.392s-3.781-.729-4.669-3.063-.237-4.749,1.454-5.392S1620.074,6017.01,1620.962,6019.345Z" transform="translate(-1573.952 -6000.343)" fill="#fcbb8c"/><path d="M1641.18,5994.145c2.646-1.1,5.627-2.288,4.7,2.209-.4,1.958,0,1.4.7,3.212s-1.772,3.227-2.575,4.23,1.169,2.1-.437,3.3-3.724-.446-5.221,0c-4.468,1.334-3.916-2.181-6.426-2.912s-3.74-.618-4.217.989,1.757,6.893-.151,6.392-2.337,3.764-2.85,6.174-1.822-1.664-1.738-4.42c.13-4.227-.92-6-2.477-7.187s-2.22-11.938,5.31-12.34,7.578-1.128,10.791-1.807S1639.974,5994.648,1641.18,5994.145Z" transform="translate(-1576.094 -5990.091)" fill="#1a2e35"/></g><g transform="translate(1505.07 5641.386)"><g transform="translate(202.905 64.294)"><path d="M1913.257,5797.979a28.221,28.221,0,1,0-48.973,19.125,12.807,12.807,0,0,1,3.391,8.68v12.65a14.924,14.924,0,0,0,14.88,14.881h4.961a14.924,14.924,0,0,0,14.881-14.881v-12.649a12.936,12.936,0,0,1,3.442-8.736A28.117,28.117,0,0,0,1913.257,5797.979Z" transform="translate(-1856.815 -5769.757)" fill="#fcc516"/><path d="M1912.206,5804.154a24.279,24.279,0,1,0-42.131,16.454,11.015,11.015,0,0,1,2.917,7.466v10.882a12.839,12.839,0,0,0,12.8,12.8h4.268a12.84,12.84,0,0,0,12.8-12.8v-10.882a11.127,11.127,0,0,1,2.962-7.515A24.2,24.2,0,0,0,1912.206,5804.154Z" transform="translate(-1859.706 -5774.039)" fill="#fee8a2"/><g transform="translate(12.087 35.624)"><path d="M1898.073,5856.988h-9.294a.844.844,0,0,1-.841-.768c-.017-.181-1.751-18.122-9.774-23.145a.845.845,0,0,1,.9-1.433c7.826,4.9,10.049,20.018,10.477,23.656h7.641a27.679,27.679,0,0,1,.761-6.775,37.206,37.206,0,0,1,9.09-16.736.845.845,0,1,1,1.244,1.143c-10.548,11.483-9.375,23-9.362,23.117a.844.844,0,0,1-.839.94Z" transform="translate(-1877.769 -5831.514)" fill="#24b8eb"/></g><g transform="translate(11.043 26.972)"><path d="M1904.265,5827.884c-3.137,0-7.415-2.229-11.92-4.646-5.819,3.1-11.253,5.878-14.3,4.034-1.43-.866-2.113-2.563-2.09-5.186.022-2.469.73-4.133,2.1-4.947,3.047-1.8,8.493,1.074,14.283,4.183,5.9-3.149,11.465-6.083,14.5-4.232,1.364.831,2.039,2.517,2.007,5.015-.033,2.6-.781,4.348-2.221,5.2A4.581,4.581,0,0,1,1904.265,5827.884Zm-10.125-5.6c4.639,2.465,9.493,4.826,11.636,3.563.9-.528,1.364-1.794,1.389-3.763.023-1.858-.379-3.053-1.2-3.55C1903.9,5817.273,1898.868,5819.775,1894.14,5822.283Zm-13.794-4.019a2.768,2.768,0,0,0-1.422.33c-.83.492-1.259,1.672-1.275,3.508-.017,1.949.412,3.2,1.276,3.726,2.084,1.263,6.954-1.086,11.626-3.551C1886.775,5820.263,1882.811,5818.264,1880.347,5818.264Z" transform="translate(-1875.959 -5816.516)" fill="#24b8eb"/></g><rect width="12.335" height="7.435" rx="3.717" transform="translate(22.338 80.136)" fill="#24b8eb"/><path d="M1874.219,5873.038v8.948a15.63,15.63,0,0,0,15.584,15.585h5.2a15.63,15.63,0,0,0,15.584-15.585v-8.948Z" transform="translate(-1864.179 -5813.46)" fill="#24b8eb"/><rect width="39.652" height="4.281" rx="2.14" transform="translate(8.624 58.113)" fill="#66cdf1"/><rect width="39.652" height="4.281" rx="2.14" transform="matrix(0.992, -0.123, 0.123, 0.992, 8.511, 65.967)" fill="#66cdf1"/><rect width="39.652" height="4.281" rx="2.14" transform="matrix(0.992, -0.123, 0.123, 0.992, 8.511, 72.15)" fill="#66cdf1"/><rect width="33.369" height="4.281" rx="2.14" transform="matrix(0.992, -0.123, 0.123, 0.992, 12.401, 78.017)" fill="#66cdf1"/></g><g transform="translate(455.77 113.694)"><path d="M2314.131,5878.963H2333.1A18.965,18.965,0,1,1,2314.131,5860Z" transform="translate(-2295.166 -5857.343)" fill="#24b8eb"/><g transform="translate(22.141)"><path d="M2352.513,5874.358a18.964,18.964,0,0,0-18.965-18.964v18.964Z" transform="translate(-2333.548 -5855.395)" fill="#d3f1fb"/></g></g><g transform="translate(130.684 122.117)"><rect width="4.142" height="11.985" transform="translate(0 16.057)" fill="#bdeaf9"/><rect width="4.142" height="8.086" transform="translate(53.09 19.956)" fill="#bdeaf9"/><rect width="4.142" height="28.041" transform="translate(17.554)" fill="#bdeaf9"/><rect width="4.142" height="12.604" transform="translate(26.331 15.437)" fill="#bdeaf9"/><rect width="4.142" height="16.172" transform="translate(35.107 11.87)" fill="#bdeaf9"/><rect width="4.142" height="19.898" transform="translate(8.777 8.144)" fill="#bdeaf9"/><rect width="4.142" height="24.507" transform="translate(43.914 3.534)" fill="#bdeaf9"/></g><g transform="translate(66.433 73.874)"><path d="M8.169,0H64.641A8.169,8.169,0,0,1,72.81,8.169V24.735a8.17,8.17,0,0,1-8.17,8.17H8.169A8.169,8.169,0,0,1,0,24.735V8.169A8.169,8.169,0,0,1,8.169,0Z" fill="#24b8eb"/><rect width="68.829" height="22.715" rx="6.6" transform="translate(1.991 8.645)" fill="#fff"/><g transform="translate(3.002 2.421)"><rect width="2.852" height="2.567" rx="1.284" fill="#fff"/><rect width="2.852" height="2.567" rx="1.284" transform="translate(5.186)" fill="#fff"/><rect width="2.852" height="2.567" rx="1.284" transform="translate(10.372)" fill="#fff"/></g><path d="M1710.643,5808.385h-36.406a1.089,1.089,0,1,1,0-2.178h36.406a1.089,1.089,0,1,1,0,2.178Z" transform="translate(-1642.624 -5794.761)" fill="#bdeaf9"/><path d="M1663.173,5837.514h-36.407a1.089,1.089,0,1,1,0-2.178h36.407a1.089,1.089,0,1,1,0,2.178Z" transform="translate(-1622.537 -5807.088)" fill="#bdeaf9"/><rect width="4.512" height="2.178" rx="1.089" transform="translate(43.203 28.249)" fill="#bdeaf9"/><rect width="4.512" height="2.178" rx="1.089" transform="translate(48.882 28.249)" fill="#bdeaf9"/><path d="M1693.987,5817.125H1633.7a.739.739,0,1,1,0-1.478h60.289a.739.739,0,1,1,0,1.478Z" transform="translate(-1625.619 -5798.756)" fill="#bdeaf9"/><path d="M1693.987,5822.654H1633.7a.739.739,0,1,1,0-1.478h60.289a.739.739,0,1,1,0,1.478Z" transform="translate(-1625.619 -5801.095)" fill="#bdeaf9"/></g><g transform="translate(285.595 67.705)"><path d="M2031.252,5793.793h-31.091v-18.122h23.381l7.709,7.708Z" transform="translate(-2000.161 -5775.672)" fill="#ffb8b3"/><path d="M2039.7,5775.672v9.672h8.28v-1.858l-7.761-7.762Z" transform="translate(-2016.894 -5775.672)" fill="#f39892"/><path d="M2040.694,5775.672v7.814h7.709Z" transform="translate(-2017.313 -5775.672)" fill="#ffb8b3"/><path d="M2019.692,5786.654h-13.855a.549.549,0,1,1,0-1.1h13.855a.549.549,0,1,1,0,1.1Z" transform="translate(-2002.33 -5779.855)" fill="#fff"/><path d="M2019.692,5791.526h-13.855a.55.55,0,0,1,0-1.1h13.855a.55.55,0,0,1,0,1.1Z" transform="translate(-2002.33 -5781.915)" fill="#fff"/><path d="M2019.692,5796.651h-13.855a.549.549,0,1,1,0-1.1h13.855a.549.549,0,1,1,0,1.1Z" transform="translate(-2002.33 -5784.085)" fill="#fff"/></g><circle cx="0.929" cy="0.929" r="0.929" transform="translate(299.282 68.169)" fill="#3e6bab"/><rect width="19.76" height="23.826" transform="translate(163.596 64.843) rotate(10.935)" fill="#fae8b6"/><path d="M1807.341,5792.544l-10.286-1.987a.507.507,0,1,1,.193-1l10.286,1.988a.507.507,0,1,1-.193,1Z" transform="translate(-1628.448 -5713.84)" fill="#9ec8ff"/><path d="M1806.48,5797l-10.286-1.987a.507.507,0,0,1,.192-1l10.286,1.988a.506.506,0,1,1-.192.995Z" transform="translate(-1628.084 -5715.726)" fill="#9ec8ff"/><path d="M1805.595,5801.583l-10.286-1.988a.506.506,0,1,1,.192-.994l10.286,1.987a.507.507,0,1,1-.192,1Z" transform="translate(-1627.709 -5717.665)" fill="#9ec8ff"/><path d="M1801.889,5775.411a.845.845,0,1,1-.67-.99A.845.845,0,0,1,1801.889,5775.411Z" transform="translate(-1629.959 -5707.431)" fill="#3e6bab"/><path d="M2056.908,5834.913l-30.027-3.163,1.983-18.821,23.807,2.508,5.564,6.874Z" transform="translate(-1725.872 -5723.731)" fill="#9ec8ff"/><path d="M2053.229,5817.878l-22.349-2.354-1.673,15.88,27.785,2.927.979-9.3-5.436-.572Z" transform="translate(-1726.856 -5724.83)" fill="#fff"/><path d="M2054.58,5827.6l-14.478-1.526a.606.606,0,1,1,.127-1.206l14.478,1.525a.606.606,0,0,1-.127,1.206Z" transform="translate(-1731.237 -5728.782)" fill="#9ec8ff"/><path d="M2054,5833.13l-14.478-1.525a.606.606,0,1,1,.127-1.206l14.478,1.525a.606.606,0,1,1-.127,1.206Z" transform="translate(-1730.99 -5731.123)" fill="#9ec8ff"/><path d="M2053.389,5838.9l-14.477-1.525a.607.607,0,0,1,.127-1.207l14.478,1.525a.607.607,0,0,1-.128,1.207Z" transform="translate(-1730.734 -5733.565)" fill="#9ec8ff"/><circle cx="0.929" cy="0.929" r="0.929" transform="translate(313.298 92.614)" fill="#3e6bab"/><g transform="translate(258.184)"><path d="M1973.375,5668.668a10.366,10.366,0,1,1-10.366-10.367A10.367,10.367,0,0,1,1973.375,5668.668Z" transform="translate(-1952.643 -5658.302)" fill="#74cd93"/><g transform="translate(6.015 7.014)"><path d="M1966.393,5677.361h-.019a.509.509,0,0,1-.362-.172l-2.816-3.2a.507.507,0,1,1,.762-.669l2.462,2.8,5.634-5.514a.507.507,0,1,1,.709.724l-6.015,5.887A.51.51,0,0,1,1966.393,5677.361Z" transform="translate(-1963.07 -5670.46)" fill="#fff"/></g></g><g transform="translate(0 148.169)"><path d="M1560.9,5915.159h-46.319a9.537,9.537,0,0,0-9.508,9.509v7.907a9.537,9.537,0,0,0,9.508,9.508h37.144l10.792,10.792v-10.941a9.536,9.536,0,0,0,7.891-9.358v-7.907A9.537,9.537,0,0,0,1560.9,5915.159Z" transform="translate(-1505.07 -5915.159)" fill="#24b8eb"/><rect width="58.577" height="21.585" rx="10.793" transform="translate(61.956 24.254) rotate(180)" fill="#fff"/><path d="M1556.324,5927.337h26.459a1.16,1.16,0,0,0,0-2.321h-26.459a1.16,1.16,0,1,0,0,2.321Z" transform="translate(-1526.267 -5919.331)" fill="#bdeaf9"/><rect width="50.365" height="1.304" rx="0.652" transform="translate(57.676 12.444) rotate(-180)" fill="#bdeaf9"/><rect width="50.365" height="1.304" rx="0.652" transform="translate(57.676 14.97) rotate(-180)" fill="#bdeaf9"/></g><g transform="translate(423.512 151.306)"><rect width="5.528" height="4.975" rx="2.487" transform="translate(25.628 4.975) rotate(180)" fill="#66cdf1"/><rect width="5.528" height="4.975" rx="2.487" transform="translate(15.578 4.975) rotate(180)" fill="#66cdf1"/><rect width="5.528" height="4.975" rx="2.487" transform="translate(5.528 4.975) rotate(180)" fill="#66cdf1"/></g></g></g></g></svg>